<?xml version="1.0" encoding="utf-8"?>
<!-- Generator: Adobe Illustrator 27.2.0, SVG Export Plug-In . SVG Version: 6.00 Build 0)  -->
<svg version="1.1" id="Layer_1" xmlns="http://www.w3.org/2000/svg" xmlns:xlink="http://www.w3.org/1999/xlink" x="0px" y="0px"
	 viewBox="0 0 593.7 693.1" style="enable-background:new 0 0 593.7 693.1;" xml:space="preserve">
<style type="text/css">
	.st0{fill:#8FA4FF;}
	.st1{fill:#FFFFFF;}
	.st2{fill:#002C44;}
	.st3{fill:#F5CAA1;}
	.st4{fill:#FFB45A;}
	.st5{fill:#664323;}
	.st6{fill:#6F7AC8;}
	.st7{fill:#DCF8FF;}
	.st8{opacity:0.25;}
	.st9{fill:#FF7B78;}
</style>
<g>
	<g id="Logo">
		<g>
			<g>
				<path class="st0" d="M210.7,3.6c-4.6-1.3-9.4-2.2-14.1-2.6C189.8,0.3,183.3,0.3,210.7,3.6z M419.4,24.4
					c-3.1-12.2-12.1-20.1-24-21.2c-1-0.1-2.1-0.2-3.1-0.2c-3.6,0-7.2,0.7-10.5,2.1c-2.7-1.1-5.6-1.7-8.6-2.1
					c-1.2-0.1-2.5-0.2-3.8-0.2c-4.9,0-9.4,0.8-13.4,2.4c-2.6-1.1-5.5-1.8-8.4-2.1c-1.1-0.1-2.1-0.2-3.2-0.2
					c-11.1,0-20.6,5.5-25.7,14.8c-11.5-9.7-26.2-15.4-44-17.2c-4-0.4-8.1-0.6-12.4-0.6c-14.4,0-29.3,0.7-41.1,7.9
					c-3.3-1.8-6.8-3.2-43.3-7.6c-17.9,0-47.8,0-60,24.9c-5.7,11.4-8.4,27.9-8.4,51.9s2.2,39.8,7,50.8c-3.3,1.1-6.4,2.5-9.2,4.3
					c-6.1-4.1-13.6-6.5-22.4-7.4c-2.4-0.2-4.9-0.4-7.6-0.4c-19.9,0-38.7,6.9-52.9,19.5C8.4,158.2,0,178,0,201.4s7.4,43.6,21.4,57.9
					l123.9,126.4c0.1,0.1,0.2,0.2,0.3,0.3c7.3,7.2,17.3,11.2,28.3,11.2h0.5c7.1,0,13.2-1.7,17.9-5c4.8,3.2,10.9,4.8,18.2,4.8
					c8,0,18.9-0.9,26.1-7.7c6.8,5.2,15.1,7.9,24.3,7.9c11.1,0,21-4,28.5-11.4c6.9,7.2,17.1,11,29.9,11c9.9,0,18.1-2.4,24.4-7.1
					c6.6,6.9,16.6,7.5,27.1,7.5s19.4-2.3,26.6-6.8c4.7,4.5,11.6,6.8,20.6,6.8c10.1,0,7.2,7,14.5,2.6c2.5-1.5,4.7-3.3,6.6-5.2
					l139.1-136.3c10-10,15.4-22.8,15.4-37c0-12.7-3.3-23.4-9.9-31.9c4.2-6.3,6.3-13.8,6.3-22.2c0-9.4-3.1-38.6-40.9-42.4
					c-2.7-0.3-5.5-0.4-8.5-0.4c-21,0-39.6,6.5-52.4,18.1c-4.5-3.8-9.5-7-15.1-9.7c1.3-3.3,1.9-6.9,1.9-10.7c0-3.9-0.8-7.8-2.2-11.2
					c0.6-2.3,0.9-4.8,0.9-7.3c0-2.2-0.2-4.4-0.7-6.5l0.1-0.3c1.3-3.4,2-7,2-10.9c0-11.9-6.8-21.9-17.8-26.1c-3.4-1.3-7-2-10.9-2.4
					c-3.2-0.3-6.7-0.4-10.5-0.4s-9.3,0-14.8,1.3c0.1-2.5,0.1-5.2,0.1-8.2c0-10.8-0.6-18.9-1.8-24.7C419.5,25,419.4,24.7,419.4,24.4
					L419.4,24.4z"/>
				<path class="st0" d="M73.5,280.4c-19.9,0-38.2-7.3-51.4-20.5C7.6,245.6,0,225.3,0,201.4s8.4-43.2,24.4-57.4
					c14.1-12.6,32.9-19.5,52.9-19.5c12.1,0,22.2,2.6,30,7.8c2.8-1.7,5.9-3.2,9.2-4.3c-4.8-11.1-7-26.9-7-50.8s2.7-40.4,8.4-51.9
					c12.2-24.9,42.1-24.9,60-24.9c12.2,0,29.9,0,43.3,7.6C233,0.7,247.9,0,262.3,0c23.4,0,42.3,6,56.3,17.8
					C323.7,8.5,333.2,3,344.3,3c4.1,0,8,0.8,11.6,2.2c4-1.6,8.5-2.4,13.4-2.4c4.5,0,8.6,0.8,12.4,2.2c3.3-1.4,6.8-2.1,10.5-2.1
					c13.3,0,23.7,8.2,27.1,21.4c0.1,0.3,0.2,0.6,0.2,0.9c1.2,5.8,1.8,13.8,1.8,24.7c0,3,0,5.8-0.1,8.2C426.7,57,432.1,57,436,57
					c8.4,0,15.3,0.5,21.4,2.9c11,4.2,17.8,14.3,17.8,26.1c0,4-0.7,7.7-2.1,11.2c0.5,2.1,0.7,4.3,0.7,6.5c0,2.5-0.3,5-0.9,7.3
					c1.5,3.4,2.2,7.3,2.2,11.2s-0.7,7.4-1.9,10.7c5.5,2.6,10.6,5.9,15.1,9.7c12.8-11.6,31.4-18.1,52.4-18.1
					c45.9,0,49.4,32.8,49.4,42.8c0,8.4-2.2,16-6.3,22.2c6.6,8.5,9.9,19.1,9.9,31.9c0,19.1-9.8,35.6-27.5,46.4
					c-13.3,8.1-30.7,12.5-48.9,12.5c-16.3,0-28.9-4.2-37.4-12.4c-13.1,8.2-29.7,12.4-48.5,12.4s-37.4-1.2-49.3-13.7
					c-11.5,8.6-26.4,13-44.4,13c-23.1,0-41.7-6.9-54.3-20c-13.5,13.4-31.6,20.7-51.8,20.7c-16.6,0-31.7-5-44.1-14.4
					c-13.2,12.4-33,14-47.5,14c-13.3,0-24.4-3-33.2-8.8c-8.5,6-19.6,9.1-32.5,9.1L73.5,280.4L73.5,280.4z"/>
			</g>
			<path class="st1" d="M574.2,189.8c5.5-5.6,8.7-13.3,8.7-22.5c0-10.7-4.1-35.5-42.1-35.5c-22.6,0-41.3,8.1-52.2,21.1
				c-0.4-0.4-0.8-0.9-1.2-1.3c-6.7-6.8-15-11.8-24.8-15.1c2.8-3,5.3-7.6,5.3-14.2c0-4-1-7.6-2.8-10.6c1-2.4,1.5-5,1.5-7.9
				c0-2.4-0.4-4.9-1.2-7.2c1.7-3,2.6-6.6,2.6-10.5c0-8.9-4.9-16.1-13.1-19.3c-5.1-2-11.2-2.4-18.8-2.4c-5.3,0-13,0-19.4,3.3
				c-1-0.6-2.1-1.1-3.3-1.6c0.5-4.2,0.7-9.4,0.7-16c0-10.3-0.5-17.9-1.6-23.2c0-0.2-0.1-0.4-0.2-0.6c-2.5-10-10-15.9-20-15.9
				c-3.5,0-7.1,0.9-10.3,2.9c-3.3-1.9-7.5-3.1-12.5-3.1c-5.7,0-10.1,1.3-13.5,3.2c-3.3-1.9-7.3-3-11.6-3c-8.9,0-16.1,4.4-19.9,12
				c-1.3,2.6-2.1,5.5-2.6,9.2c-1.3-1.6-2.6-3.1-4-4.5c-12.9-13.1-31.6-19.7-55.5-19.7c-15.7,0-30.6,0.9-41,9.5
				c-11.7-9.2-30.4-9.2-43.5-9.2c-21.9,0-44,1.6-53.5,20.9c-5.2,10.4-7.6,25.8-7.6,48.6c0,24.4,2.2,39.7,7.3,49.8
				c1.1,2.2,2.4,4.2,3.8,6c-9.1,1.1-15.8,4.3-20.8,8.5c-6-5.6-15.4-9.6-29.8-9.6c-34.8,0-69.9,23.9-69.9,69.6
				c0,21.9,6.9,40.4,19.9,53.3c11.9,11.8,28.3,18.3,46.3,18.3h0.9c15,0,25.5-4.5,32.4-11.2c7.9,7.2,19.1,10.8,33.3,10.8
				c17.4,0,36.5-2.4,46.8-16.9c11.6,10.9,27.1,17.3,44.9,17.3c21.6,0,40-9.3,52-24.6c13.1,18.9,34.7,23.9,54,23.9
				c15.7,0,33-3.6,45.5-16.3c9.4,15.6,27.4,17,48.2,17s37.2-5.1,49.7-14.9c5.6,8,16.2,14.9,36.2,14.9c17,0,33-4.1,45.2-11.5
				c15.4-9.4,23.9-23.7,23.9-40.2S580.7,196,574.2,189.8L574.2,189.8z"/>
			<g>
				<path class="st0" d="M337.6,71.8c-1.5-2.9-2-9.2-2-21.8s0.5-18.2,2-21.2c1.3-2.7,3.5-3.9,6.8-3.9s5.4,1.2,6.8,3.9
					c1.5,2.9,2,8.8,2,21.2s-0.5,18.8-2,21.8c-1.3,2.6-3.5,3.7-6.8,3.7S338.9,74.4,337.6,71.8z"/>
				<path class="st0" d="M358.9,69.9c-1.2-4.1-1.5-10.8-1.5-19.9c0-8.4,0.4-15.1,1.7-19.2c1.5-4.1,4.8-6,10.3-6s9.5,2,12.7,15.2
					c2.6,10.2,2.9,11.3,3.8,11.3c0.6,0,0.9-0.7,0.9-1.7c0-4.7-0.2-8.8-0.2-16.1c0-6.1,2.5-8.5,5.7-8.5c2.7,0,4.8,0.9,5.8,4.9
					c0.8,3.7,1.3,10,1.3,20.2c0,9.1-0.5,16.2-1.7,20.1c-1.3,3.9-4.3,5.5-9.3,5.5c-6.5,0-9.7-3.8-13.5-19c-2.2-8.4-2.2-9.6-3.3-9.6
					c-0.6,0-0.9,0.4-0.9,2c0,4.6,0.2,11.4,0.2,17.6s-2,8.9-5.7,8.9C361.9,75.5,359.9,73.7,358.9,69.9L358.9,69.9z"/>
				<path class="st0" d="M343.5,120.4c0-5.8,0.3-20.2,0.3-23.1c0-1.8-0.5-2.2-1.7-2.2H339c-2.9,0-5.2-1.6-5.2-7.1c0-7.1,3-9,18.2-9
					s18.3,1.9,18.3,9c0,5.6-2.4,7.1-5.2,7.1h-3.2c-1.2,0-1.8,0.5-1.8,2.2c0,2.9,0.4,17.3,0.4,23.1c0,7-3.6,9.2-8.5,9.2
					S343.5,127.4,343.5,120.4L343.5,120.4z"/>
				<path class="st0" d="M373.8,121.6c-0.7-4.3-1-10-1-17.4s0.3-13,1-17.4c1-4.9,3.6-7.7,8.1-7.7s6.7,2.2,6.8,6.3
					c0.2,2.1,0.2,5.1,0.2,6.8s0.2,2.5,2,2.6h5c1.9-0.1,2.2-1,2.2-2.6c0-1.9,0.1-4.8,0.2-6.8c0.1-4,2.2-6.3,6.7-6.3s7.3,2.8,8.2,7.7
					c0.7,4.3,1,10.1,1,17.4s-0.3,13.2-1,17.4c-0.9,5.1-3.5,8.1-7.7,8.1c-4.8,0-7.1-3.1-7.2-8.3c-0.1-2.7-0.2-6.8-0.2-9.8
					c0-1.6-0.3-2.5-2.2-2.6h-5.1c-1.7,0.1-1.9,0.9-1.9,2.6c0,2.9-0.1,7.1-0.2,9.8c0,5.3-2.4,8.3-7.2,8.3
					C377.3,129.7,374.8,126.8,373.8,121.6L373.8,121.6z"/>
				<path class="st0" d="M420.5,125.3c-1.2-2.6-2-10.8-2-21.2s0.8-18.1,2.1-20.9c1.6-3.3,5.3-4.3,15.4-4.3c13,0,17.3,1.3,17.3,7.1
					c0,4-2,6-6.7,6c-3.6,0-6.9-0.2-10.2-0.2c-1.5,0-2.1,0.3-2.2,1.9c-0.1,1.1-0.1,2.2-0.1,3.3c0,1.4,0.6,1.7,2.1,1.7
					c3.8,0,5.9-0.1,9.4-0.1c4.6,0,6.3,1.6,6.3,5.1s-1.8,5.1-5.8,5.1c-3,0-6.6-0.2-10.2-0.2c-1.2,0-1.6,0.5-1.6,1.3
					c0,2.3,0,5,0.1,5.4c0.1,1.1,0.6,1.6,1.8,1.6h12.1c3,0,5,1.6,5,5.2c0,4.6-2.5,7.6-16.9,7.6C425.7,129.8,422.1,128.4,420.5,125.3
					L420.5,125.3z"/>
			</g>
			<g>
				<path class="st0" d="M137.1,120.4c-3.9-7.7-5.7-21.9-5.7-43.2c0-20,2-34,6.1-42.1c4.5-9.2,14.3-12.8,40.4-12.8
					c28.6,0,39.7,3.4,39.7,19.8c0,11.1-5.7,17-18.8,17c-8.6,0-11.1-0.3-17.5-0.3c-2.5,0-4.2,1-4.2,3.7V63c0,1.7,1.2,2.7,4,2.7
					c6.9,0,10.8-0.3,17-0.3c10.9,0,15.6,3.9,15.6,12.4s-4.4,12.6-14.3,12.6c-5.5,0-11.1-0.3-18.5-0.3c-2.7,0-4,1.2-4,2.9v0.8
					c0,1.9,1.7,3,3.7,3h24.1c8.1,0,13.1,4.9,13.1,14.6c0,12.4-5.4,21.2-40,21.2C151.2,132.6,141.6,129.4,137.1,120.4L137.1,120.4z"
					/>
				<path class="st0" d="M226.1,121.7c-4.2-8.6-6.2-22.6-6.2-44.8c0-20.5,2-34.5,6.2-43.1c4.4-8.6,12.3-11.9,36.2-11.9
					c36.9,0,59,18.2,58.7,54.3c0.3,38.4-22.5,56.7-58.7,56.7C238.2,133,230.3,130.3,226.1,121.7L226.1,121.7z M277.9,75.4
					c0-4.9-4.2-6.6-9.8-6.6c-3,0-4.4,0.8-4.4,6.7c0,5.4,1,7.1,4,7.1C273.4,82.7,277.9,80.3,277.9,75.4L277.9,75.4z"/>
			</g>
			<g>
				<path class="st0" d="M21.9,201.4c0-36.7,27.5-55,55.3-55c19,0,25.8,8.3,25.8,22.1c0,22.1-20.9,22.6-27.7,29.4
					c-1.4,1.4-2.2,3-2.2,5.1s0.9,3.9,2.2,5.3c5.8,5.8,27.7,4.2,27.7,26.8c0,13.9-9.3,23.6-29.2,23.4
					C46.5,258.6,21.9,240.1,21.9,201.4L21.9,201.4z"/>
				<path class="st0" d="M110.7,242.6c-4.6-10.2-6.4-27.7-6.4-39.5c0-10.5,0.5-24.3,4.8-38c3.4-12.2,11.4-18,26.3-18
					c16.8,0,21.7,10.7,21.7,31.1c0,7.5-1,15.1-1,19.9c0,7,2.4,8.3,6.6,8.3h1.2c6.8,0,15.8,3,15.8,21.5c0,23.1-11.2,30.2-39.5,30.2
					C121.2,258.1,114.2,250.8,110.7,242.6L110.7,242.6z"/>
				<path class="st0" d="M179.6,201.4c0-35.1,22.9-55,52.1-55s52.8,19.7,52.8,54.8s-23.8,57.2-52.8,57.2S179.6,236.7,179.6,201.4
					L179.6,201.4z M239,200.4c0-4.4-3-7-7.1-7s-7,2.5-7,7s2.7,7.3,7,7.3S239,204.8,239,200.4z"/>
				<path class="st0" d="M286.3,201.9c0-18.7,0.9-33.3,5.6-42.6c3.9-8,10.4-12.2,21.4-12.2c13.1,0,20.5,6.6,20.5,24.6
					c0,10.9-0.3,19.5-0.3,29c0,4.1,1.5,5.6,4.4,5.6c2.2,0,4.1-1.5,4.1-5.6c0-9.5-0.3-18.2-0.3-29c0-18,7.1-24.6,20.5-24.6
					c9.2,0,14.8,4.1,18.5,11.5c4.6,9.2,5.6,24.1,5.6,43.3c0,36.7-14.6,55.8-48.5,55.8C301.4,257.7,286.3,238.5,286.3,201.9
					L286.3,201.9z"/>
				<path class="st0" d="M394.9,247c-4.2-8.6-6.3-22.7-6.3-45.1c0-20.7,2-34.8,6.3-43.4c4.4-8.6,12.4-12.1,36.5-12.1
					c37.2,0,59.6,18.3,59.2,54.8c0.3,38.7-22.7,57.2-59.2,57.2C407.2,258.4,399.2,255.7,394.9,247L394.9,247z M447.2,200.4
					c0-4.9-4.2-6.6-9.8-6.6c-3,0-4.4,0.9-4.4,6.8c0,5.4,1,7.1,4.1,7.1C442.6,207.7,447.2,205.3,447.2,200.4L447.2,200.4z"/>
				<path class="st0" d="M489.8,237.5c0-12.7,9.7-16.1,17.5-17.3c5.8-0.9,10.4-1.4,10.4-4.4c0-6.6-24.6-5.1-24.6-35
					c0-22.2,23.6-34.4,47.7-34.4c20.2,0,27.5,8,27.5,20.9s-8.2,15.9-14.8,17c-4.2,0.7-7.5,1.4-7.5,4.4c0,6.6,25.8,3.6,25.8,32.8
					c0,24.4-27,37-54.5,37C497.1,258.4,489.8,250.4,489.8,237.5z"/>
			</g>
			<g>
				<ellipse class="st2" cx="286.4" cy="684.3" rx="79.4" ry="8.8"/>
				<g>
					<path class="st3" d="M388.3,549.6c0.8-6,4.5-11.3,10.1-13.6c4.9-2,9.9-1.3,12.8,2.3c4.3,5.3-4.2,8.2-6,11.3
						c-4.7,8.2,8.6,11.4,9.8,4.6c0.3-1.6,0.2-3.3-0.1-4.9c-1-5.1,6.6-8.4,11.1-6.6c6.2,2.4,10.6,11.1,2.8,19.5
						c-0.8,0.9-0.4,2.3,0.8,2.6c2.3,0.5,10.9,2.4,15.3,3.5c1.2,0.3,1.9,1.6,1.4,2.8c-1.5,3.7-6.1,11.2-18.8,16.7
						c0,0-28,1.7-41.6-19.8L388.3,549.6L388.3,549.6z"/>
					<path class="st3" d="M183.7,549c-0.8-6-4.5-11.3-10.1-13.6c-4.9-2-9.9-1.3-12.8,2.3c-4.3,5.3,4.2,8.2,6,11.3
						c4.6,8.2-8.6,11.4-9.9,4.6c-0.3-1.6-0.2-3.3,0.1-4.9c1-5.1-6.6-8.4-11.1-6.6c-6.2,2.4-10.6,11.1-2.8,19.5
						c0.8,0.9,0.4,2.3-0.8,2.6c-2.4,0.5-10.9,2.4-15.3,3.5c-1.2,0.3-1.9,1.6-1.4,2.8c1.5,3.7,6.1,11.2,18.8,16.7
						c0,0,28,1.7,41.6-19.8L183.7,549L183.7,549z"/>
					<path class="st2" d="M449.2,567.4c-0.8-1.6-2.3-2.8-4.1-3.2c-3-0.7-7.9-1.8-11.5-2.6l0,0c2.5-3.9,3.3-8.1,2.3-12.2
						c-1.1-4.8-4.6-8.9-9.2-10.6c-3.4-1.3-7.7-0.8-11.1,1c-0.3-1.4-0.9-2.8-2-4.1c-3.9-4.9-10.8-6.2-17.6-3.5
						c-6.9,2.8-11.7,9.3-12.6,16.8l-2.5,19.7l0.8,1.2c12.8,20.3,36.8,21.8,43.5,21.8c1,0,1.6,0,1.8,0l0.7,0l0.7-0.3
						c14-5.9,19.1-14.4,21-18.8C450.1,570.9,450,569,449.2,567.4L449.2,567.4z M408,551.6c0.2-0.4,1.3-1.2,2-1.7
						c0,0,0.1-0.1,0.2-0.1c0,0.1,0,0.2,0,0.2c0.3,1.3,0.3,2.4,0.1,3.4c0,0.1,0,0.2,0,0.2c-0.2,0.2-1.5,0.3-2.4-0.3
						C407.5,553.1,407.2,552.9,408,551.6L408,551.6z M425.9,583.6c-4,0.1-25.2-0.5-36.5-16.8l2.1-16.7c0.6-4.7,3.5-8.6,7.6-10.3
						c2.6-1.1,6.2-1.4,8.1,1.1c0.1,0.1,0.2,0.2,0.2,0.3c-0.4,0.6-1.8,1.7-2.6,2.4c-1.5,1.2-3.1,2.4-4,4.1c-2.1,3.7-2,7.5,0.2,10.4
						c2.3,3.1,6.7,4.6,10.7,3.7c3.5-0.8,5.9-3.3,6.6-6.8c0.4-2,0.3-4.2-0.1-6.5c0-0.1-0.1-0.4,0.6-0.9c1.3-1.1,3.7-1.6,5.1-1.1
						c2,0.8,3.7,2.7,4.2,4.8c0.6,2.6-0.4,5.4-2.9,8.1c-0.9,1-1.4,2.2-1.5,3.4l-8,0.2c-1.5,0.3-1.5,2.4-0.1,2.7l12.1,2.9
						c0.1,0,0.2,0.1,0.4,0.1c0.4,0.1,1,0.2,1.8,0.4l11,2.6c-0.8,1.3-1.9,2.8-3.6,4.5c-3-0.6-21.8-4.2-21.8-4.2
						c-1.6-0.3-2.2,2-0.7,2.6l17.1,5.8C430.1,581.5,428.1,582.6,425.9,583.6L425.9,583.6z"/>
					<path class="st2" d="M174.3,531.6c-6.7-2.8-13.6-1.4-17.6,3.5c-1.1,1.3-1.8,2.7-2,4.1c-3.4-1.8-7.8-2.3-11.1-1
						c-4.6,1.8-8.1,5.8-9.2,10.6c-0.9,4.1-0.1,8.3,2.3,12.2c-3.6,0.8-8.5,1.9-11.5,2.6c-1.8,0.4-3.2,1.6-4.1,3.2
						c-0.8,1.6-0.9,3.5-0.2,5.1c1.9,4.5,7,12.9,21,18.8l0.6,0.3l0.7,0c0.2,0,0.8,0,1.8,0c6.8,0,30.7-1.5,43.5-21.8l0.8-1.2
						l-2.5-19.7C186,540.9,181.2,534.4,174.3,531.6L174.3,531.6z M160.3,549.4c0-0.1,0-0.2,0-0.2c0,0,0.1,0.1,0.2,0.1
						c0.7,0.5,1.7,1.4,2,1.7c0.7,1.3,0.4,1.5,0.2,1.7c-0.9,0.6-2.2,0.5-2.4,0.3c0,0,0,0,0-0.2C160,551.8,160,550.7,160.3,549.4
						L160.3,549.4z M144.5,583c-2.2-1-4.2-2-5.9-3.1c6.2-2.1,17.1-5.8,17.1-5.8c1.6-0.5,0.9-2.9-0.7-2.6l-21.8,4.2
						c-1.6-1.6-2.8-3.2-3.6-4.5l11-2.6c0.7-0.2,1.3-0.3,1.7-0.4c0.1,0,0.2-0.1,0.4-0.1l12.1-2.9c1.5-0.3,1.4-2.4-0.1-2.7l-8-0.2
						c-0.1-1.3-0.6-2.5-1.5-3.4c-2.5-2.7-3.5-5.5-2.9-8.1c0.5-2.2,2.1-4.1,4.2-4.8c1.4-0.5,3.8,0,5.1,1.1c0.6,0.5,0.6,0.8,0.6,0.9
						c-0.5,2.3-0.5,4.5-0.1,6.5c0.6,3.4,3.1,6,6.6,6.8c4,0.9,8.4-0.6,10.7-3.7c2.2-3,2.3-6.8,0.2-10.4c-0.9-1.7-2.5-2.9-4-4.1
						c-0.8-0.6-2.2-1.7-2.6-2.4c0-0.1,0.1-0.2,0.2-0.3c2-2.4,5.5-2.1,8.1-1.1c4.1,1.7,7,5.6,7.6,10.3l2.1,16.7
						C169.7,582.5,148.5,583,144.5,583L144.5,583z"/>
					<path class="st4" d="M387.9,556.3c-2.1,8.2-5.5,12.3-7.9,14.3c-1.4,1.1-3.2,1.5-4.9,1.1c-10.2-2.5-19.5-5.6-27.8-9.2
						c-5.3-2.2-10.2-4.7-14.9-7.3c-2.3-1.3-4.5-2.6-6.6-4c1.7,16.4,3.1,35.3,3.1,54.5h-88.1c0-19,1.2-37.4,3-53.8
						c-2.5,1.6-5.1,3.1-7.8,4.6c-4,2.1-8.1,4.1-12.5,6c-8.5,3.6-17.9,6.7-28.3,9.3c-1.7,0.4-3.5,0-4.9-1.1c-2.4-2-5.8-6.1-7.9-14.3
						c-2.2-8.7-0.9-15.1,0.3-18.5c0.6-1.8,2.1-3.1,3.9-3.6c10.2-2.6,18.8-5.7,26-9c6.4-2.9,11.7-6,16.2-9.1c3.5-2.4,6.4-4.8,8.9-7.2
						c3.9-3.7,8.1-6.8,12.6-9.5c3-1.8,6.1-3.3,9.3-4.6c4.8-1.9,9.8-3.3,14.9-4.1c3.5-0.5,7-0.8,10.6-0.8c3.9,0,7.7,0.3,11.4,1
						c8.7,1.5,17,4.6,24.5,9.2c4.1,2.5,8,5.5,11.5,8.8c2.7,2.5,5.9,5.2,9.8,7.8c4.1,2.8,9,5.6,14.7,8.2c7.3,3.4,16.1,6.5,26.5,9.2
						c1.8,0.5,3.3,1.8,3.9,3.6C388.9,541.3,390.1,547.7,387.9,556.3L387.9,556.3z"/>
					<path class="st3" d="M296.6,491.8c0,5.2-5,9.5-11.1,9.5s-11.1-4.2-11.1-9.5c0-0.4,0-0.7,0.1-1.1c3.5-0.5,7-0.8,10.6-0.8
						c3.9,0,7.7,0.3,11.4,1C296.6,491.2,296.6,491.5,296.6,491.8L296.6,491.8z"/>
					<path class="st5" d="M347.2,562.5c-5.3-2.2-10.2-4.7-14.9-7.3c14.5-17.1,7.1-36.3,6.8-37.2l3.3-1.3c4.1,2.8,9,5.6,14.7,8.2
						C358.2,534.8,357.2,548.9,347.2,562.5L347.2,562.5z"/>
					<path class="st5" d="M238.1,554.6l-2.1,1.8c-4,2.1-8.1,4.1-12.5,6c-10.3-13.3-11.8-27.2-10.9-37.3c6.4-2.9,11.7-6,16.2-9.1
						l2,0.8C230.4,517.7,222.9,537.3,238.1,554.6L238.1,554.6z"/>
					<rect x="246.3" y="542.5" class="st5" width="77.7" height="25.7"/>
					<path class="st2" d="M392.4,536.1L392.4,536.1c-1.2-3.4-4-6-7.5-6.9c-21.3-5.4-37.7-13.5-48.9-24c-6.2-5.8-13.2-10.5-20.8-13.9
						l-0.4-0.2c-9.3-4.1-19.5-6.3-29.8-6.3s-20.5,2.2-29.9,6.3c0,0-14.9,8.2-21.1,14c-11.2,10.5-27.6,18.6-48.9,24
						c-3.5,0.9-6.3,3.5-7.5,6.9c-1.5,4.5-2.9,11.8-0.4,21.5c2.4,9.4,6.6,14.4,9.6,16.9c2.6,2.1,6.1,2.9,9.4,2.1
						c15.9-4,31.1-9.2,42.6-15.6c-1.3,15.5-2,30.5-2,44.8v5.1h95.5v-5.1c0-14.1-0.7-29-2.1-45.4c12,6.8,27.4,12.2,43.3,16.1
						c3.3,0.8,6.8,0,9.4-2.1c3.1-2.5,7.2-7.5,9.6-16.9C395.3,547.9,394,540.6,392.4,536.1L392.4,536.1z M383,555.1
						c-1.8,7.1-4.7,10.3-6.2,11.6c-0.1,0.1-0.3,0.2-0.5,0.1c-18.7-4.7-34.3-11.2-47.8-19.8l-2-1.3c-1.4-9.5-3-18.9-4.8-28.3
						c-0.7-3.1-5.2-2.3-4.9,0.8c0.9,6.8,1.5,13.8,2.2,20.7c1.8,20.3,3,41.3,4,61.7h-76.3c0.1-2.4,0.5-9.6,0.5-9.6
						c1.4-24.2,2.8-48.7,5.7-72.8c0.4-3.2-4.2-4-4.9-0.9c-1.9,9.7-3.5,19.3-4.9,29l-1.9,1.2c-12.9,8.2-28.3,14.5-47.1,19.2
						c-0.2,0-0.3,0-0.5-0.1c-1.5-1.3-4.4-4.5-6.2-11.6c-1.9-7.6-0.7-13.1,0.1-15.7c0.1-0.2,0.2-0.3,0.4-0.4
						c22.9-5.8,40.9-14.8,53.3-26.5c12-11.3,27.7-17.6,44-17.6s32,6.2,44,17.6c12.4,11.7,30.4,20.6,53.3,26.5c0.2,0,0.3,0.2,0.4,0.4
						C383.7,542,384.9,547.5,383,555.1L383,555.1z"/>
					<path class="st2" d="M285.3,505.5c-7.5,0-13.5-5.1-13.5-11.3h6.1c0,2.8,3.4,5.2,7.4,5.2s7.4-2.4,7.4-5.2h6.1
						C298.8,500.4,292.8,505.5,285.3,505.5L285.3,505.5z"/>
					<path class="st2" d="M285.3,512.7c-11.5,0-20.8-7.7-20.8-17.1h6.1c0,6.1,6.6,11,14.7,11s14.7-4.9,14.7-11h6.1
						C306.1,505,296.8,512.7,285.3,512.7L285.3,512.7z"/>
					<path class="st2" d="M422.8,546.2c-0.4-0.3-1.4,0.2-1.8,0.5c-1.6,1.1-2.6,3-1.5,4.8c0.5,0.9,1.5,1.7,2.7,2.4
						c0.7,0.4,1,1.3,0.5,2c-0.4,0.6-1.1,0.8-1.7,0.6c-1.6-0.6-3.1-1.4-4.3-2.7c-3.8-3.9-1.3-10.5,3.1-12.8
						C426.7,537.3,428.3,546.2,422.8,546.2L422.8,546.2L422.8,546.2z"/>
					<path class="st2" d="M147.4,538.2c2.6,0,4.4,1.1,6,2.8c4.6,5,2.8,11.5-3.6,13.6c-1.6,0.6-2.7-1.6-1.2-2.5c1.9-1.1,3.8-2.9,3-5
						c-0.4-1.2-1.7-2.5-2.9-2.8c-0.4-0.1-0.6,0-0.6,0C144,544.5,143.4,538.6,147.4,538.2L147.4,538.2L147.4,538.2z"/>
					<path class="st0" d="M375,602.1c-4-16.8-28.9-25.2-55.8-18.8c-10.8,2.5-16,4.2-23.2,6.5c-1.7,0.5-22.5,0.3-22.5,0.3
						s2.8,5.8-0.4,3.5c-7-5.2-12.5-7.8-22.7-10.2c-26.8-6.3-51.8,2.1-55.8,18.8s5.6,31.9,32.5,38.2c20.2,4.8,44.3,3.2,56.8-4.9
						c9.8,9.6,29.2,13.4,49.8,8.5C360.4,637.6,379,618.8,375,602.1L375,602.1z"/>
					<path class="st6" d="M199.3,597.1c-0.3,7-2.7,21.2,23.6,31.3c26.1,10.1,55.2,1.9,55.2,1.9l-6.4,11.1c0,0-22.8,8.8-54.9-4.2
						C184.8,624.1,199.3,597.1,199.3,597.1z"/>
					<path class="st6" d="M311.6,610.3c0,0,37,0.3,38.7,24.8l-7.7,3.5c0,0-18-23.1-33.7-27.2C293.3,607.3,311.6,610.3,311.6,610.3
						L311.6,610.3z"/>
					<path class="st2" d="M378.4,599.9c-2.9-9.8-12.1-16.3-21.3-19.2c-16.9-5.5-37.9-3.2-53.6,5c-0.4,0.2-0.9,0.5-1.3,0.7h-34.5
						c-0.9-0.5-1.8-1.1-2.6-1.6c-4-2.2-8.3-3.7-12.6-4.9c-18.8-5-45.4-4.3-58.2,12.7c-4.4,6.2-5.6,14.3-4.5,21.7
						c2.3,15,16.4,24.5,29.9,28.5c16.2,5.1,39,6.7,56.4,0.7c1.2,0,2.4-0.4,3.3-1.2c1.4-0.6,2.7-1.2,4-1.9c22.4,17.4,62,9.7,82.2-7.8
						C374.7,625,382.3,612.3,378.4,599.9L378.4,599.9z M364.5,622.4c-8.3,9.1-19.9,14.5-31.9,17.4c-12,2.7-24.8,3-36.2-1.5
						c-3.7-1.5-7-3.5-9.7-6c-0.1-0.1-0.3-0.2-0.4-0.4c0.8-1.7,1.6-3.4,2.1-5.2c1-3.2,1.6-6.6,1.7-10.1c3.7-0.7,7.4-1.5,11-2.4
						c13.5-3.3,27-6.8,40.3-10.8c2.1-0.7,1.4-3.8-0.8-3.5c-13.7,2.2-27.4,4.7-41,7.6c-3.4,0.7-6.9,1.5-10.3,2.4
						c-0.2-0.6-0.3-1.2-0.5-1.9c-0.5-1.4-1.8-2.5-3.4-2.7l-49.3-8.3c-3.3-0.5-4.2,4.2-1.1,5.1l45.4,11.7c0.6,4.4-0.5,9.1-2.3,13.2
						c-0.9,2.1-2.2,4.1-3.4,6c-0.7,0.9-1.4,1.8-2.1,2.7c-15.6,4.9-36.2,3.1-50.4-1.3c-15.1-4.6-28-15-23.4-32.2
						c2.1-7,8.9-11.6,15.7-14.1c19.2-6.7,41.4-1.6,59,7.6c0.6,0.3,1.4,0.2,2-0.3c0.7-0.7,0.7-1.8,0-2.5c-0.4-0.4-0.8-0.8-1.1-1.1
						h19.9c-0.7,0.6-1.4,1.2-2.1,1.9c-0.7,0.6-0.8,1.7-0.3,2.5c0.6,0.9,1.8,1.2,2.7,0.6c3.6-2.3,7.3-4.3,11.1-5.9
						c15.3-6.2,32.9-8.7,48.7-3.3C372.2,593.6,377.2,608.3,364.5,622.4L364.5,622.4z"/>
					<path class="st1" d="M298.3,651.8c-10-2.6-15.8-6.3-18.6-12.4c-0.6-1.3,2.6-5.9,5-13.2c2.4-7.5,1.3-12.2,4.3-12.7
						c5.1-0.9,10.4-0.8,19,1.5c17.2,4.5,36.2,14.1,32.1,29C336.6,656.7,315.5,656.2,298.3,651.8L298.3,651.8z"/>
					<path class="st7" d="M296.1,645.1c-6.7-1.8-10.6-4.2-12.5-8.3c-0.4-0.9,1.7-3.9,3.3-8.9c1.6-5,0.9-8.2,2.9-8.5
						c3.5-0.6,7-0.5,12.8,1c11.5,3,24.3,9.5,21.6,19.5C321.8,648.4,307.7,648.1,296.1,645.1L296.1,645.1z"/>
					<path class="st2" d="M318.8,659.7c-6.6,0-14.1-1-21.7-3c-11.8-3.1-18.5-7.8-21.9-15.2c-1.3-2.8-0.1-5.3,1.5-8.9
						c1-2.1,2.2-4.8,3.2-8c0.8-2.6,1.2-4.8,1.5-6.7c0.5-3.4,1.4-8.5,6.8-9.4c6.5-1.1,12.7-0.6,21.1,1.6c9.8,2.5,27.1,8.6,33.8,20.1
						c2.7,4.7,3.4,10,2,15.2c-1.5,5.5-6.2,12.4-20,14.1C323,659.6,320.9,659.7,318.8,659.7L318.8,659.7z M299.6,646.8
						c16,4.2,33.3,4.1,35.6-4.2c0.7-2.7,0.4-5-1-7.5c-3.5-6-13.8-11.8-27.6-15.4c-7-1.8-11.3-2.1-15.1-1.6c-0.1,0.4-0.1,0.9-0.2,1.3
						c-0.3,2.1-0.8,4.9-1.9,8.3c-1.2,3.8-2.6,6.9-3.7,9.1c-0.3,0.6-0.6,1.2-0.8,1.8C286.8,641.4,290.2,644.4,299.6,646.8
						L299.6,646.8z M284.6,639.6L284.6,639.6z"/>
					<g>
						<path class="st1" d="M294.3,636.8c0,0-2-5.6,3.6-10.6"/>
						<path class="st2" d="M294.3,638.3c-0.6,0-1.2-0.4-1.4-1c-0.1-0.3-2.2-6.7,4-12.2c0.6-0.5,1.6-0.5,2.1,0.1s0.5,1.6-0.1,2.1
							c-4.8,4.2-3.2,8.9-3.2,9c0.3,0.8-0.1,1.6-0.9,1.9C294.6,638.3,294.4,638.3,294.3,638.3L294.3,638.3z"/>
					</g>
					<g>
						<path class="st1" d="M300.6,638.3c0,0-1.9-5.5,3.5-10.2"/>
						<path class="st2" d="M300.6,639.7c-0.6,0-1.1-0.4-1.4-1c-0.1-0.3-2.1-6.4,3.9-11.8c0.6-0.5,1.5-0.5,2,0.1
							c0.5,0.6,0.5,1.5-0.1,2c-4.5,4-3.1,8.5-3.1,8.7c0.2,0.8-0.2,1.6-0.9,1.8C300.9,639.7,300.7,639.7,300.6,639.7L300.6,639.7z"/>
					</g>
					<g>
						<path class="st1" d="M306.9,640.1c0,0-1.9-5.5,3.5-10.2"/>
						<path class="st2" d="M306.9,641.5c-0.6,0-1.1-0.4-1.4-1c-0.1-0.3-2.1-6.4,3.9-11.8c0.6-0.5,1.5-0.5,2,0.1
							c0.5,0.6,0.5,1.5-0.1,2c-4.5,4-3.1,8.5-3.1,8.7c0.2,0.8-0.2,1.6-0.9,1.8C307.2,641.5,307.1,641.5,306.9,641.5L306.9,641.5z"/>
					</g>
					<path class="st2" d="M326.7,652.9c-0.6,0-1.2-0.4-1.4-1.1c-3.6-14.5,5.2-21.8,5.5-22c0.6-0.5,1.5-0.4,2,0.2
						c0.5,0.6,0.4,1.5-0.2,2c-0.3,0.3-7.7,6.4-4.5,19.1c0.2,0.8-0.3,1.6-1,1.8C326.9,652.9,326.8,652.9,326.7,652.9L326.7,652.9z"/>
					<path class="st2" d="M329.1,633.6c-0.2,0-0.5-0.1-0.6-0.2c-13.5-11.2-33.2-12.7-37.8-12.5c-0.6,0-1-0.4-1.1-1
						c0-0.6,0.4-1,1-1.1c0.2,0,23-0.4,39.2,13c0.4,0.4,0.5,1,0.1,1.4C329.7,633.5,329.4,633.6,329.1,633.6L329.1,633.6z"/>
					<path class="st2" d="M321.2,648.5c-7.2,0-23.4-1.1-36.2-10.4c-0.5-0.3-0.6-1-0.2-1.4c0.3-0.5,1-0.6,1.4-0.2
						c14.2,10.2,34,10.4,38.5,9.9c0.5-0.1,1.1,0.3,1.1,0.9c0.1,0.6-0.3,1.1-0.9,1.1C324.8,648.4,323.5,648.5,321.2,648.5
						L321.2,648.5z"/>
				</g>
				<g class="st8">
					<path d="M321.1,500.1c-6.4,11.8-19.8,22.9-35.2,22.9s-29.3-11.5-35.6-23.5c3-1.8,6.1-3.3,9.3-4.6c4.8-1.9,9.8-3.3,14.9-4.1
						c3.5-0.5,7-0.8,10.6-0.8c3.9,0,7.7,0.3,11.4,1C305.2,492.4,313.6,495.5,321.1,500.1L321.1,500.1z"/>
				</g>
				<g>
					<path class="st1" d="M288,492.5l102.4-0.1c28.6-1.8,51.2-25.5,51.2-54.5s-24.5-54.6-54.6-54.6c-2.1,0-4.2,0.1-6.2,0.4
						c0-0.1,0-0.2,0-0.4c0-14.1-11.4-25.5-25.5-25.5c-1.4,0-2.8,0.1-4.1,0.3c-1.2-33.9-29-61-63.1-61s-62,27.1-63.1,61
						c-1.3-0.2-2.7-0.3-4.1-0.3c-14.1,0-25.5,11.4-25.5,25.5c0,0.1,0,0.2,0,0.4c-2-0.2-4.1-0.4-6.2-0.4c-30.2,0-54.6,24.5-54.6,54.6
						c0,29,22.6,52.7,51.2,54.5L288,492.5L288,492.5L288,492.5z"/>
					<path class="st7" d="M186.2,475.6c-19.6-1.5-34.9-17.9-34.9-37.6c0-20.8,16.9-37.8,37.8-37.8c1.4,0,2.8,0.1,4.3,0.2l15.3,1.7
						c2,0.2,3.8-1.4,3.8-3.4c-0.1-5.7-0.3-15.6-0.3-15.6c0.1-4.6,3.9-8.4,8.6-8.4c0.5,0,0.9,0,1.4,0.1l15.1,2.5
						c2,0.3,3.9-1.2,3.9-3.2l0.5-15.3c0.4-12,5.4-23.3,14.1-31.7c8.7-8.4,20.1-13,32.2-13s23.5,4.6,32.2,13
						c8.7,8.4,13.7,19.6,14.1,31.7l0.5,15.3c0.1,2,1.9,3.5,3.9,3.2l15.1-2.5c0.5-0.1,0.9-0.1,1.4-0.1c4.7,0,8.5,3.8,8.6,8.4
						c0,0.1,0,0.2,0,0.3l-0.2,15.3c0,2,1.7,3.6,3.8,3.4l15.2-1.7c1.5-0.2,2.9-0.2,4.3-0.2c20.8,0,37.8,16.9,37.8,37.8
						c0,19.7-15.3,36.2-34.8,37.6l-101.8,0.1L186.2,475.6L186.2,475.6z"/>
					<circle class="st1" cx="256.9" cy="411.9" r="23.4"/>
					<circle class="st1" cx="319.1" cy="411.9" r="23.4"/>
					<path class="st2" d="M256.9,438.7c-14.7,0-26.7-12-26.7-26.7c0-14.7,12-26.7,26.7-26.7s26.7,12,26.7,26.7
						C283.6,426.7,271.6,438.7,256.9,438.7z M256.9,392c-11,0-20,9-20,20s9,20,20,20s20-9,20-20S267.9,392,256.9,392z"/>
					<path class="st2" d="M247.3,418.7c-1.7-6.5,1.5-16.5,9.6-16.7c8,0.3,11.3,10.2,9.6,16.7c-0.3,1.4-2.4,1.5-2.8,0.1
						c-1.1-3.7-2.2-7.3-5-9.7c-0.9-0.6-1.7-1-2.6-0.6c-3.4,1.7-4.8,6.4-5.9,10.2C249.8,420.2,247.6,420.2,247.3,418.7L247.3,418.7
						L247.3,418.7z"/>
					<path class="st2" d="M233.6,409.1h-5.8c-2,0-3.7-1.7-3.7-3.7s1.7-3.7,3.7-3.7h5.8c2,0,3.7,1.7,3.7,3.7S235.7,409.1,233.6,409.1
						z"/>
					<path class="st2" d="M319.1,438.7c-14.7,0-26.7-12-26.7-26.7c0-14.7,12-26.7,26.7-26.7s26.7,12,26.7,26.7
						C345.8,426.7,333.8,438.7,319.1,438.7z M319.1,392c-11,0-20,9-20,20s9,20,20,20s20-9,20-20S330.1,392,319.1,392z"/>
					<path class="st2" d="M325.8,418.7c-1.1-3.7-2.2-7.2-4.9-9.6c-0.9-0.6-1.7-1-2.6-0.6c-3.4,1.7-4.8,6.5-6,10.2
						c-0.2,0.8-1,1.2-1.8,1c-0.5-0.2-0.9-0.6-1-1.1c-0.7-3.1-0.6-6.4,0.6-9.6c3.6-9.4,14.3-9.4,17.9,0c1.2,3.2,1.3,6.5,0.6,9.6
						c-0.2,0.8-1,1.3-1.7,1.1C326.4,419.6,326,419.2,325.8,418.7L325.8,418.7L325.8,418.7z"/>
					<path class="st2" d="M348.1,409.1h-5.8c-2,0-3.7-1.7-3.7-3.7s1.7-3.7,3.7-3.7h5.8c2,0,3.7,1.7,3.7,3.7S350.1,409.1,348.1,409.1
						z"/>
					<path class="st2" d="M294.9,416c-0.5,0-1.1-0.1-1.6-0.4c-5-2.8-10.9,0-11,0.1c-1.7,0.8-3.7,0.1-4.5-1.5
						c-0.8-1.7-0.1-3.7,1.5-4.5c0.4-0.2,9-4.4,17.2,0c1.6,0.9,2.2,2.9,1.4,4.6C297.2,415.3,296.1,415.9,294.9,416L294.9,416z"/>
					<path class="st2" d="M244.9,377.1c2.5-2.5,5.4-4.4,8.6-5.8c3.3-1.4,7-2.1,10.7-1.8c1.9,0.1,3.3,1.7,3.2,3.6c-0.1,2-2,3.5-4,3.1
						c-2.6-0.5-5.3-0.3-7.9,0.5c-2.7,0.8-5.3,2.2-7.5,3.9C245.7,382.3,243,379.2,244.9,377.1L244.9,377.1L244.9,377.1z"/>
					<path class="st2" d="M327.9,380.5c-4.2-3.4-10.1-5.4-15.4-4.3c-4.4,0.6-5.6-5.8-1.2-6.7c3.8-0.4,7.7,0.4,11,1.8
						c3.3,1.4,6.1,3.3,8.6,5.8C333.1,379.2,330.2,382.3,327.9,380.5L327.9,380.5z"/>
					<path class="st2" d="M302,442.7c-0.8,2.5-2.1,5.8-4.6,8.4c-2.2,2.3-5.2,4.1-9.5,4.1s-7-1.6-9.2-3.8c-2.6-2.6-4-6.1-4.8-8.6
						c-0.5-1.7,0.8-3.4,2.5-3.4h23C301.3,439.4,302.5,441,302,442.7L302,442.7z"/>
					<path class="st9" d="M297.5,451.1c-2.2,2.3-5.2,4.1-9.5,4.1s-7-1.6-9.2-3.8c1.6-3.6,5.2-6.1,9.4-6.1S295.8,447.6,297.5,451.1
						L297.5,451.1z"/>
					<path class="st2" d="M288,457.6c-7.6,0-13.5-5.2-16.3-14.1c-0.5-1.5-0.2-3.1,0.8-4.4c1-1.3,2.4-2,4-2h23c1.6,0,3.1,0.7,4,2
						c0.9,1.3,1.2,2.9,0.8,4.4C301.6,452.4,295.6,457.6,288,457.6L288,457.6z M276.5,441.7c0,0-0.1,0-0.2,0.1c-0.1,0.1,0,0.2,0,0.2
						c2.7,8.9,7.9,10.8,11.8,10.8s9-1.9,11.8-10.8c0,0,0-0.1,0-0.2c-0.1-0.1-0.2-0.1-0.2-0.1H276.5L276.5,441.7z"/>
					<path class="st2" d="M386.9,378.2c-0.5,0-1,0-1.6,0c-2.4-14.2-14.7-25.2-29.5-25.5c-1.7-15.8-8.9-30.3-20.4-41.5
						c-12.8-12.4-29.7-19.2-47.5-19.2s-34.7,6.8-47.5,19.2c-11.5,11.1-18.6,25.7-20.4,41.5c-14.9,0.3-27.1,11.2-29.5,25.5
						c-0.5,0-1,0-1.6,0c-32.9,0-59.7,26.8-59.7,59.7c0,32.9,24.6,57.6,55.9,59.6h0.2l102.6,0.1l0,0l102.4-0.1h0.3
						c31.3-2,55.9-28.2,55.9-59.6S419.9,378.3,386.9,378.2L386.9,378.2z M390.3,487.4L288,487.5l-102.2-0.1
						c-26-1.7-46.3-23.4-46.3-49.5c0-27.3,22.2-49.6,49.6-49.6c1.8,0,3.7,0.1,5.6,0.3l3.5,0.4c2.5,0.4,5.3,1.1,8,2.2
						c1.7,0.7,3.2-1.3,2-2.7c-2-2.4-4.6-5-7.9-6.6c0.7-10.6,9.5-19.1,20.3-19.1c0.1,0,0.2,0,0.4,0c3.2,0.3,7.6,1,11.8,2.7
						c1.7,0.7,3.2-1.3,2-2.7c-1.4-1.7-3-3.4-5-4.8c0.6-15,6.8-29,17.6-39.5c10.9-10.6,25.2-16.4,40.4-16.4s29.5,5.8,40.4,16.4
						c10.8,10.5,17.1,24.5,17.6,39.6c-1.9,1.4-3.5,3.1-4.9,4.7c-1.1,1.4,0.4,3.4,2,2.7c4.2-1.7,8.6-2.4,11.9-2.7c0,0,0.1,0,0.1,0
						c11.1,0,20.1,8.9,20.4,19.9c-2.4,1.6-4.5,3.6-6,5.6c-1.1,1.4,0.4,3.4,2,2.7c2.7-1.1,5.6-1.8,8.2-2.2l1.5-0.2
						c1.9-0.2,3.8-0.3,5.6-0.3c27.3,0,49.6,22.2,49.6,49.6S416.2,485.7,390.3,487.4L390.3,487.4z"/>
				</g>
			</g>
		</g>
	</g>
</g>
</svg>
