<?xml version="1.0" encoding="UTF-8"?>
<svg xmlns="http://www.w3.org/2000/svg" viewBox="0 0 487.4 593.48">
  <g style="isolation: isolate;">
    <g id="Mascot">
      <ellipse cx="243.7" cy="580.52" rx="117.49" ry="12.96" style="fill: #002c44;"/>
      <g>
        <path d="m396.24,381.04c1.1-8.88,6.73-16.7,15-20.09,7.26-2.97,14.71-1.94,19,3.34,6.41,7.89-6.29,12.16-8.92,16.76-6.89,12.09,12.72,16.86,14.58,6.78.44-2.41.29-4.88-.18-7.28-1.49-7.55,9.74-12.38,16.45-9.79,9.15,3.53,15.73,16.44,4.15,28.91-1.22,1.31-.57,3.46,1.18,3.86,3.48.8,16.09,3.54,22.67,5.11,1.82.43,2.84,2.39,2.13,4.11-2.26,5.48-8.97,16.61-27.84,24.64,0,0-41.47,2.47-61.58-29.36l3.36-26.99Z" style="fill: #f5caa1;"/>
        <path d="m93.52,380.16c-1.1-8.88-6.73-16.7-15-20.09-7.26-2.97-14.71-1.94-19,3.34-6.41,7.89,6.29,12.16,8.92,16.76,6.89,12.09-12.72,16.86-14.58,6.78-.44-2.41-.29-4.88.18-7.28,1.49-7.55-9.74-12.38-16.45-9.79-9.15,3.53-15.73,16.44-4.15,28.91,1.22,1.31.57,3.46-1.18,3.86-3.48.8-16.09,3.54-22.67,5.11-1.82.43-2.84,2.39-2.13,4.11,2.26,5.48,8.97,16.61,27.84,24.64,0,0,41.47,2.47,61.58-29.36l-3.36-26.99Z" style="fill: #f5caa1;"/>
        <path d="m486.4,407.47c-1.22-2.38-3.4-4.1-6-4.72-4.49-1.07-11.73-2.68-17.02-3.85h-.01c3.63-5.75,4.86-12,3.46-18.05-1.64-7.1-6.87-13.13-13.65-15.74-4.97-1.92-11.38-1.26-16.45,1.47-.38-2.1-1.37-4.14-2.96-6.1-5.84-7.19-16.03-9.2-25.99-5.13-10.15,4.16-17.32,13.71-18.71,24.94l-3.62,29.14,1.16,1.83c18.97,30.02,54.39,32.23,64.41,32.23,1.48,0,2.4-.05,2.64-.06l1.05-.06.96-.41c20.64-8.79,28.32-21.25,31.06-27.9,1.01-2.45.9-5.22-.31-7.58Zm-61.03-23.37c.37-.53,1.92-1.75,2.94-2.56.08-.06.16-.12.23-.18.02.12.04.24.07.36.38,1.92.43,3.56.17,5.01-.03.18-.07.24-.07.24-.34.35-2.29.52-3.55-.42-.37-.28-.84-.62.21-2.46Zm26.57,47.28c-5.93.08-37.34-.78-53.97-24.82l3.08-24.78c.86-6.9,5.19-12.74,11.29-15.24,3.9-1.6,9.1-2.03,12.02,1.56.15.18.25.33.32.45-.64.95-2.7,2.58-3.87,3.49-2.23,1.76-4.54,3.58-5.93,6.02-3.1,5.44-3.01,11.06.25,15.42,3.43,4.59,9.93,6.84,15.82,5.47,5.14-1.2,8.77-4.95,9.71-10.03.54-2.93.48-6.15-.2-9.55-.03-.14-.12-.58.84-1.39,1.91-1.61,5.49-2.37,7.5-1.59,3.04,1.17,5.48,3.99,6.22,7.18.89,3.83-.61,7.97-4.32,11.97-1.31,1.41-2.06,3.22-2.2,5.08l-11.92.36c-2.18.4-2.26,3.49-.1,3.99l17.95,4.27c.18.05.35.12.53.16.61.14,1.51.34,2.59.58l16.21,3.85c-1.15,1.89-2.84,4.17-5.26,6.59-4.36-.83-32.19-6.16-32.19-6.16-2.4-.44-3.32,3.03-1.02,3.84l25.29,8.63c-2.48,1.6-5.34,3.16-8.65,4.63Z" style="fill: #002c44;"/>
        <path d="m79.63,354.47c-9.95-4.07-20.15-2.06-25.99,5.13-1.59,1.96-2.58,4.01-2.96,6.1-5.06-2.72-11.48-3.38-16.45-1.47-6.78,2.61-12.01,8.64-13.65,15.74-1.4,6.04-.17,12.29,3.46,18.04-5.3,1.18-12.54,2.78-17.04,3.85-2.6.62-4.78,2.34-6,4.72-1.21,2.37-1.33,5.13-.32,7.58,2.74,6.65,10.42,19.11,31.07,27.9l.96.41,1.05.06c.24.01,1.16.06,2.64.06,10.02,0,45.44-2.21,64.41-32.22l1.16-1.83-3.62-29.14c-1.4-11.23-8.57-20.78-18.71-24.94Zm-20.84,26.37c.02-.12.05-.24.07-.36.08.06.16.12.23.18,1.02.81,2.57,2.03,2.91,2.5,1.08,1.89.62,2.24.24,2.52-1.26.94-3.21.77-3.54.42,0,0-.04-.06-.07-.25-.26-1.43-.21-3.12.17-5.01Zm-23.33,49.66c-3.31-1.47-6.17-3.03-8.65-4.63,9.21-3.15,25.28-8.63,25.28-8.63,2.31-.8,1.38-4.28-1.02-3.84l-32.19,6.16c-2.42-2.42-4.11-4.69-5.26-6.59l16.23-3.85c1.08-.24,1.97-.44,2.58-.58.19-.04.36-.11.54-.16l17.95-4.26c2.15-.51,2.08-3.6-.1-3.99l-11.92-.36c-.14-1.87-.89-3.67-2.2-5.08-3.72-4-5.21-8.15-4.33-11.97.74-3.19,3.18-6.01,6.22-7.18,2.02-.77,5.59-.02,7.5,1.59.96.8.87,1.24.84,1.39-.67,3.4-.74,6.61-.2,9.55.94,5.08,4.56,8.83,9.71,10.03,5.88,1.37,12.38-.88,15.82-5.47,3.26-4.36,3.35-9.98.25-15.42-1.39-2.44-3.7-4.26-5.94-6.02-1.16-.92-3.23-2.54-3.87-3.49.07-.11.17-.26.32-.45,2.91-3.59,8.12-3.16,12.02-1.56,6.11,2.5,10.44,8.34,11.3,15.24l3.08,24.78c-16.64,24.05-48.03,24.87-53.97,24.82Z" style="fill: #002c44;"/>
        <path d="m395.71,391.05c-3.09,12.12-8.19,18.2-11.74,21.11-2.03,1.67-4.73,2.28-7.28,1.64-15.13-3.78-28.78-8.31-41.2-13.6-7.8-3.3-15.12-6.91-22.02-10.82-3.34-1.89-6.58-3.85-9.73-5.88,2.56,24.33,4.63,52.2,4.63,80.59h-130.37c0-28.18,1.83-55.4,4.36-79.6-3.71,2.36-7.55,4.61-11.51,6.76-5.85,3.17-11.99,6.11-18.46,8.84-12.6,5.32-26.46,9.84-41.93,13.71-2.55.64-5.25.03-7.28-1.64-3.55-2.91-8.65-8.99-11.74-21.11-3.27-12.85-1.37-22.32.41-27.46.92-2.64,3.1-4.65,5.81-5.35,15.1-3.86,27.82-8.42,38.54-13.31,9.47-4.32,17.37-8.91,23.97-13.49,5.12-3.56,9.45-7.13,13.11-10.58,5.73-5.4,12.01-10.09,18.71-14.01,4.42-2.6,9.03-4.86,13.77-6.76,7.09-2.84,14.51-4.88,22.11-6.07,5.16-.82,10.42-1.23,15.71-1.23,5.7,0,11.34.48,16.88,1.42,12.88,2.17,25.2,6.8,36.32,13.61,6.09,3.71,11.82,8.07,17.09,13.04,4,3.77,8.79,7.67,14.53,11.55,6.13,4.14,13.34,8.27,21.82,12.19,10.87,5.02,23.84,9.7,39.28,13.64,2.71.7,4.88,2.71,5.8,5.35,1.78,5.14,3.68,14.61.41,27.46Z" style="fill: #ffb45a;"/>
        <path d="m260.54,295.63c0,7.76-7.34,14.04-16.39,14.04s-16.39-6.28-16.39-14.04c0-.54.04-1.08.11-1.61,5.16-.82,10.42-1.23,15.71-1.23,5.7,0,11.34.48,16.88,1.42.05.47.08.94.08,1.42Z" style="fill: #f5caa1;"/>
        <path d="m335.49,400.2c-7.8-3.3-15.12-6.91-22.02-10.82,21.46-25.35,10.54-53.77,10.07-54.99l4.86-1.98c6.13,4.14,13.34,8.27,21.82,12.19,1.57,14.6.05,35.49-14.73,55.6Z" style="fill: #664323;"/>
        <path d="m173.94,388.53l-3.09,2.72c-5.85,3.17-11.99,6.11-18.46,8.84-15.22-19.68-17.42-40.28-16.19-55.16,9.47-4.32,17.37-8.91,23.97-13.49l2.93,1.18c-.49,1.23-11.66,30.33,10.84,55.91Z" style="fill: #664323;"/>
        <rect x="186.13" y="370.64" width="115.05" height="38.09" style="fill: #664323;"/>
        <path d="m402.38,361.13h0c-1.75-5.04-5.87-8.83-11.03-10.15-31.46-8.03-55.8-20-72.33-35.58-9.17-8.64-19.56-15.54-30.74-20.56l-.55-.24c-13.8-6.1-28.79-9.31-44.15-9.31s-30.39,3.23-44.21,9.34c0,0-22.06,12.13-31.23,20.77-16.53,15.58-40.87,27.55-72.33,35.58-5.16,1.32-9.29,5.11-11.03,10.15-2.29,6.59-4.24,17.45-.59,31.78,3.56,13.96,9.71,21.33,14.24,25.05,3.85,3.16,9.04,4.33,13.87,3.12,23.48-5.87,46.04-13.59,63.13-23.05-1.94,22.93-2.91,45.17-2.91,66.31v7.56h141.38v-7.56c0-20.9-1.03-43-3.13-67.16,17.7,10.02,40.6,18.01,64.13,23.89,4.83,1.21,10.01.04,13.86-3.12,4.54-3.72,10.69-11.09,14.25-25.05,3.65-14.33,1.69-25.19-.59-31.78Zm-13.94,28.07c-2.69,10.55-6.94,15.28-9.23,17.17-.2.16-.46.22-.7.16-27.68-6.93-50.81-16.52-70.71-29.34l-3-1.93c-2.14-14.02-4.48-28-7.15-41.89-1.08-4.61-7.75-3.44-7.26,1.21,1.32,10.08,2.3,20.43,3.21,30.69,2.64,30.12,4.45,61.06,5.94,91.32h-112.93c.18-3.61.72-14.25.72-14.25,2.01-35.81,4.08-72.12,8.42-107.68.6-4.76-6.19-5.91-7.25-1.3-2.79,14.3-5.16,28.63-7.31,42.97l-2.86,1.82c-19.04,12.12-41.84,21.4-69.69,28.37-.24.06-.5,0-.7-.16-2.29-1.88-6.54-6.61-9.23-17.16-2.88-11.28-1.09-19.35.23-23.16.09-.27.31-.47.57-.53,33.96-8.67,60.51-21.85,78.91-39.2,17.81-16.79,40.95-26.03,65.15-26.03s47.34,9.24,65.16,26.03c18.41,17.34,44.96,30.53,78.91,39.2.27.07.48.27.57.54,1.32,3.8,3.1,11.87.23,23.15Z" style="fill: #002c44;"/>
        <path d="m243.85,315.79c-11.02,0-19.99-7.52-19.99-16.75h9c0,4.2,5.03,7.75,10.99,7.75s10.99-3.55,10.99-7.75h9c0,9.24-8.97,16.75-19.99,16.75Z" style="fill: #002c44;"/>
        <path d="m243.85,326.5c-16.99,0-30.81-11.35-30.81-25.31h9c0,8.99,9.78,16.31,21.81,16.31s21.81-7.32,21.81-16.31h9c0,13.96-13.82,25.31-30.81,25.31Z" style="fill: #002c44;"/>
        <path d="m447.32,376.05c-.55-.4-2.02.33-2.71.82-2.31,1.66-3.78,4.38-2.15,7.07.77,1.34,2.27,2.56,3.94,3.56,1.04.56,1.42,1.89.8,2.9-.53.88-1.6,1.22-2.52.87-2.36-.88-4.62-2.04-6.42-4-5.58-5.81-1.95-15.48,4.59-18.88,10.28-5.48,12.64,7.66,4.47,7.65h0Z" style="fill: #002c44;"/>
        <path d="m39.76,364.14c3.83-.06,6.53,1.68,8.88,4.09,6.82,7.39,4.14,17.02-5.38,20.09-2.35.88-3.94-2.42-1.81-3.71,2.8-1.62,5.61-4.26,4.47-7.42-.58-1.77-2.49-3.62-4.35-4.12-.54-.16-.96-.06-.95.03-5.93.38-6.76-8.21-.85-8.96h0Z" style="fill: #002c44;"/>
        <path d="m376.57,458.75c-5.87-24.79-42.83-37.27-82.56-27.87-15.92,3.77-23.66,6.22-34.36,9.56-2.53.79-33.38.49-33.38.49,0,0,4.07,8.56-.59,5.1-10.4-7.72-18.5-11.57-33.63-15.15-39.73-9.4-76.69,3.08-82.56,27.87-5.87,24.79,8.35,47.2,48.08,56.6,29.84,7.06,65.58,4.78,84.01-7.3,14.46,14.17,43.24,19.82,73.67,12.62,39.73-9.4,67.18-37.12,61.31-61.92Z" style="fill: #8fa4ff;"/>
        <path d="m116.63,451.33c-.39,10.41-4.03,31.3,34.95,46.34,38.68,14.92,81.68,2.75,81.68,2.75l-9.42,16.49s-33.77,12.96-81.28-6.28c-47.51-19.24-25.92-59.29-25.92-59.29Z" style="fill: #6f7ac8;"/>
        <path d="m282.73,470.96s54.78.39,57.33,36.72l-11.39,5.1s-26.7-34.16-49.87-40.25c-23.17-6.09,3.93-1.57,3.93-1.57Z" style="fill: #6f7ac8;"/>
        <path d="m381.6,455.51c-4.26-14.44-17.97-24.08-31.52-28.47-25.03-8.13-56.09-4.68-79.32,7.43-.65.35-1.3.72-1.95,1.09h-51.12c-1.28-.81-2.58-1.58-3.92-2.31-5.92-3.21-12.27-5.54-18.66-7.24-27.82-7.36-67.19-6.43-86.09,18.82-6.51,9.16-8.31,21.14-6.61,32.15,3.43,22.16,24.32,36.27,44.22,42.26,23.93,7.48,57.64,9.93,83.51,1.05,1.78.04,3.54-.6,4.9-1.86,2.03-.85,3.99-1.78,5.89-2.79,33.17,25.71,91.84,14.38,121.61-11.49,13.66-11.49,24.83-30.22,19.06-48.63Zm-20.53,33.3c-12.31,13.5-29.47,21.53-47.17,25.77-17.69,3.93-36.7,4.49-53.59-2.14-5.41-2.16-10.39-5.1-14.33-8.85-.2-.19-.43-.36-.65-.53,1.24-2.51,2.32-5.1,3.18-7.74,1.48-4.75,2.43-9.82,2.52-14.89,5.47-1.09,10.91-2.3,16.34-3.58,20-4.83,39.89-10.14,59.64-15.91,3.18-1,2.1-5.7-1.18-5.24-20.32,3.25-40.56,7-60.7,11.21-5.08,1.08-10.15,2.24-15.2,3.49-.23-.93-.5-1.85-.82-2.76-.8-2.05-2.63-3.64-4.96-4.03l-73-12.29c-4.86-.68-6.26,6.2-1.6,7.51l67.24,17.32c.86,6.48-.67,13.52-3.43,19.49-1.31,3.06-3.21,6.04-5.09,8.82-.99,1.33-2.03,2.64-3.05,3.97-23.09,7.2-53.63,4.62-74.54-1.9-22.34-6.87-41.49-22.21-34.59-47.71,3.05-10.38,13.1-17.17,23.21-20.8,28.45-9.88,61.21-2.32,87.38,11.27.95.49,2.14.34,2.95-.44,1.02-.98,1.05-2.6.07-3.62-.55-.57-1.11-1.13-1.69-1.68h29.46c-1.05.9-2.08,1.81-3.07,2.76-.97.93-1.19,2.44-.45,3.62.85,1.36,2.64,1.77,4,.92,5.38-3.36,10.82-6.36,16.51-8.75,22.61-9.15,48.75-12.85,72.13-4.91,25.84,9.02,33.21,30.74,14.48,51.61Z" style="fill: #002c44;"/>
        <path d="m263.1,532.27c-14.78-3.87-23.37-9.28-27.54-18.31-.88-1.91,3.83-8.69,7.36-19.58,3.59-11.08,1.91-18.11,6.33-18.85,7.62-1.27,15.38-1.13,28.13,2.21,25.46,6.67,53.61,20.88,47.56,43-5.15,18.85-36.39,18.2-61.85,11.54Z" style="fill: #fff;"/>
        <path d="m259.84,522.39c-9.92-2.6-15.69-6.23-18.48-12.29-.59-1.28,2.57-5.83,4.94-13.14,2.41-7.44,1.28-12.16,4.25-12.65,5.11-.85,10.33-.76,18.88,1.48,17.09,4.48,35.98,14.01,31.92,28.86-3.46,12.65-24.42,12.22-41.51,7.74Z" style="fill: #dcf8ff;"/>
        <path d="m293.36,544.02c-9.75,0-20.86-1.54-32.16-4.5-17.38-4.55-27.39-11.47-32.45-22.42-1.91-4.13-.17-7.92,2.23-13.16,1.45-3.16,3.26-7.1,4.81-11.88,1.24-3.82,1.76-7.08,2.22-9.96.8-5.04,2.02-12.64,10.01-13.98,9.68-1.61,18.73-.93,31.26,2.35,14.43,3.78,40.12,12.67,49.99,29.75,4.02,6.96,5.03,14.74,2.91,22.49-2.23,8.17-9.2,18.41-29.67,20.81-2.88.34-5.94.5-9.15.5Zm-28.36-19.01c23.65,6.19,49.35,6.03,52.71-6.26,1.08-3.96.63-7.46-1.43-11.03-5.14-8.89-20.39-17.4-40.8-22.74-10.39-2.72-16.77-3.06-22.35-2.43-.11.62-.22,1.3-.32,1.92-.49,3.08-1.16,7.29-2.76,12.22-1.82,5.61-3.91,10.18-5.44,13.51-.39.85-.83,1.82-1.18,2.62,2.54,4.13,7.72,8.57,21.56,12.2Zm-22.13-10.73h0Z" style="fill: #002c44;"/>
        <g>
          <path d="m257.1,510.14s-2.89-8.35,5.34-15.63" style="fill: #fff;"/>
          <path d="m257.1,512.35c-.92,0-1.78-.57-2.09-1.49-.14-.4-3.27-9.84,5.96-18.01.92-.81,2.31-.73,3.12.19s.73,2.32-.19,3.12c-7.04,6.23-4.74,13.18-4.71,13.25.4,1.16-.21,2.42-1.37,2.82-.24.08-.48.12-.72.12Z" style="fill: #002c44;"/>
        </g>
        <g>
          <path d="m266.42,512.37s-2.79-8.07,5.16-15.11" style="fill: #fff;"/>
          <path d="m266.42,514.5c-.88,0-1.71-.55-2.01-1.43-.13-.38-3.16-9.51,5.77-17.41.88-.78,2.24-.7,3.02.18.78.89.7,2.24-.18,3.02-6.72,5.95-4.65,12.55-4.55,12.82.37,1.12-.23,2.33-1.34,2.71-.23.08-.46.11-.69.11Z" style="fill: #002c44;"/>
        </g>
        <g>
          <path d="m275.85,515.02s-2.79-8.07,5.16-15.11" style="fill: #fff;"/>
          <path d="m275.84,517.15c-.88,0-1.71-.55-2.01-1.43-.13-.38-3.16-9.51,5.77-17.41.88-.78,2.24-.7,3.02.18.78.89.7,2.24-.18,3.02-6.72,5.95-4.65,12.55-4.55,12.82.37,1.12-.23,2.33-1.34,2.71-.23.08-.46.11-.69.11Z" style="fill: #002c44;"/>
        </g>
        <path d="m305.11,533.97c-.96,0-1.83-.65-2.07-1.62-5.38-21.51,7.65-32.18,8.2-32.63.93-.74,2.27-.58,3.01.34.74.92.58,2.27-.33,3-.49.4-11.4,9.52-6.72,28.24.29,1.15-.41,2.31-1.56,2.6-.17.04-.35.06-.52.06Z" style="fill: #002c44;"/>
        <path d="m308.65,505.45c-.34,0-.68-.11-.96-.34-19.96-16.51-49.17-18.81-55.92-18.51-.86.04-1.53-.61-1.56-1.43-.04-.83.61-1.53,1.43-1.56.33,0,34.1-.55,57.96,19.19.64.53.73,1.47.2,2.11-.3.36-.73.54-1.16.54Z" style="fill: #002c44;"/>
        <path d="m296.92,527.52c-10.63,0-34.55-1.69-53.61-15.38-.67-.48-.83-1.42-.34-2.09.48-.67,1.42-.82,2.09-.34,21.04,15.12,50.35,15.4,57.05,14.65.82-.11,1.56.5,1.66,1.32.09.82-.5,1.57-1.32,1.66-.08,0-2.12.18-5.53.18Z" style="fill: #002c44;"/>
      </g>
      <g style="mix-blend-mode: multiply; opacity: .5;">
        <path d="m296.09,307.82c-9.49,17.43-29.27,33.86-52.14,33.86s-43.38-16.98-52.65-34.83c4.42-2.6,9.03-4.86,13.77-6.76,7.09-2.84,14.51-4.88,22.11-6.07,5.16-.82,10.42-1.23,15.71-1.23,5.7,0,11.34.48,16.88,1.42,12.88,2.17,25.2,6.8,36.32,13.61Z" style="fill: #767e8f;"/>
      </g>
      <g>
        <path d="m243.7,296.64l151.54-.09c42.26-2.66,75.72-37.76,75.72-80.69s-36.21-80.87-80.87-80.87c-3.11,0-6.18.19-9.21.54,0-.18.01-.36.01-.54,0-20.81-16.87-37.68-37.68-37.68-2.06,0-4.08.17-6.05.49-1.71-50.16-42.89-90.3-93.47-90.3-50.58,0-91.75,40.14-93.47,90.3-1.97-.32-3.99-.49-6.05-.49-20.81,0-37.68,16.87-37.68,37.68,0,.18.01.36.01.54-3.02-.34-6.09-.54-9.21-.54-44.66,0-80.87,36.21-80.87,80.87,0,42.93,33.46,78.03,75.72,80.69l151.54.09h0Z" style="fill: #fff;"/>
        <path d="m93.03,271.55c-28.99-2.19-51.58-26.51-51.58-55.69,0-30.81,25.06-55.87,55.87-55.87,2.03,0,4.18.13,6.39.38l22.63,2.57c3,.34,5.61-2.03,5.56-5.05-.14-8.37-.39-23.05-.39-23.13.13-6.88,5.77-12.44,12.68-12.44.67,0,1.37.06,2.06.17l22.4,3.62c2.97.48,5.69-1.76,5.79-4.77l.78-22.68c.61-17.8,8-34.44,20.82-46.86,12.84-12.44,29.77-19.3,47.66-19.3s34.82,6.85,47.66,19.3c12.82,12.42,20.21,29.06,20.82,46.86l.78,22.68c.1,3.01,2.82,5.25,5.79,4.77l22.4-3.62c.69-.11,1.39-.17,2.06-.17,6.91,0,12.55,5.56,12.68,12.44,0,.17,0,.33,0,.5l-.25,22.65c-.03,3.01,2.58,5.36,5.56,5.02l22.51-2.55c2.24-.25,4.33-.38,6.39-.38,30.81,0,55.87,25.06,55.87,55.87,0,29.18-22.6,53.5-51.58,55.69l-150.67.09-150.67-.09Z" style="fill: #dcf8ff;"/>
        <circle cx="197.6" cy="177.34" r="34.56" style="fill: #fff;"/>
        <circle cx="289.64" cy="177.34" r="34.56" style="fill: #fff;"/>
        <path d="m197.6,216.9c-21.81,0-39.55-17.74-39.55-39.56s17.74-39.56,39.55-39.56,39.56,17.74,39.56,39.56-17.74,39.56-39.56,39.56Zm0-69.11c-16.3,0-29.55,13.26-29.55,29.56s13.26,29.56,29.55,29.56,29.56-13.26,29.56-29.56-13.26-29.56-29.56-29.56Z" style="fill: #002c44;"/>
        <path d="m183.45,187.35c-2.53-9.65,2.27-24.36,14.16-24.75,11.89.39,16.68,15.09,14.15,24.75-.48,2.13-3.55,2.19-4.13.11-1.62-5.5-3.3-10.81-7.33-14.31-1.25-.92-2.48-1.45-3.92-.84-5.04,2.53-7.07,9.47-8.78,15.04-.5,2.19-3.68,2.17-4.16,0h0Z" style="fill: #002c44;"/>
        <path d="m163.2,173.12h-8.54c-3.04,0-5.5-2.46-5.5-5.5s2.46-5.5,5.5-5.5h8.54c3.04,0,5.5,2.46,5.5,5.5s-2.46,5.5-5.5,5.5Z" style="fill: #002c44;"/>
        <path d="m289.64,216.9c-21.81,0-39.55-17.74-39.55-39.56s17.74-39.56,39.55-39.56,39.56,17.74,39.56,39.56-17.74,39.56-39.56,39.56Zm0-69.11c-16.3,0-29.55,13.26-29.55,29.56s13.26,29.56,29.55,29.56,29.56-13.26,29.56-29.56-13.26-29.56-29.56-29.56Z" style="fill: #002c44;"/>
        <path d="m299.63,187.35c-1.62-5.47-3.3-10.72-7.3-14.2-1.25-.92-2.48-1.45-3.91-.85-5.07,2.54-7.1,9.56-8.81,15.15-.32,1.13-1.51,1.79-2.64,1.46-.77-.22-1.32-.84-1.49-1.57-1.04-4.53-.87-9.46.95-14.21,5.26-13.95,21.15-13.95,26.41,0,1.82,4.75,1.99,9.68.95,14.21-.26,1.15-1.41,1.87-2.56,1.6-.83-.19-1.42-.83-1.6-1.6h0Z" style="fill: #002c44;"/>
        <path d="m332.59,173.12h-8.54c-3.04,0-5.5-2.46-5.5-5.5s2.46-5.5,5.5-5.5h8.54c3.04,0,5.5,2.46,5.5,5.5s-2.46,5.5-5.5,5.5Z" style="fill: #002c44;"/>
        <path d="m253.8,183.31c-.81,0-1.62-.2-2.38-.61-7.47-4.07-16.12.05-16.21.09-2.47,1.2-5.47.19-6.68-2.28-1.22-2.47-.22-5.45,2.24-6.68.54-.27,13.32-6.51,25.44.08,2.43,1.32,3.32,4.36,2,6.78-.91,1.67-2.62,2.61-4.4,2.61Z" style="fill: #002c44;"/>
        <path d="m179.91,125.82c3.66-3.67,7.93-6.57,12.77-8.64,4.82-2.07,10.29-3.06,15.77-2.72,2.77.16,4.88,2.54,4.71,5.31-.16,2.96-2.95,5.16-5.87,4.62-3.79-.67-7.81-.48-11.74.69-3.94,1.15-7.84,3.19-11.1,5.81-3.37,2.59-7.47-2.01-4.53-5.06h0Z" style="fill: #002c44;"/>
        <path d="m302.75,130.82c-6.29-5.03-14.88-7.93-22.77-6.43-6.55.95-8.23-8.51-1.74-9.86,5.64-.53,11.37.54,16.36,2.65,4.84,2.07,9.1,4.96,12.77,8.64,2.98,3.12-1.27,7.72-4.61,5h0Z" style="fill: #002c44;"/>
        <path d="m264.43,222.93c-1.11,3.62-3.16,8.53-6.76,12.38-3.25,3.47-7.76,6.08-13.98,6.08s-10.4-2.42-13.61-5.7c-3.84-3.9-5.98-9.02-7.13-12.76-.76-2.48,1.11-4.97,3.7-4.97h34.08c2.59,0,4.46,2.49,3.7,4.97Z" style="fill: #002c44;"/>
        <path d="m257.67,235.31c-3.25,3.47-7.76,6.08-13.98,6.08s-10.4-2.42-13.61-5.7c2.34-5.35,7.68-9.08,13.88-9.08s11.28,3.56,13.71,8.7Z" style="fill: #ff7b78;"/>
        <path d="m243.7,244.89c-11.23,0-20.01-7.63-24.09-20.93-.69-2.25-.28-4.62,1.12-6.51,1.4-1.9,3.57-2.99,5.93-2.99h34.08c2.36,0,4.52,1.09,5.93,2.99,1.4,1.89,1.81,4.26,1.12,6.51-4.08,13.3-12.86,20.93-24.09,20.93Zm-17.04-23.43s-.19,0-.3.15c-.1.14-.07.25-.05.3,4.05,13.21,11.69,15.98,17.39,15.98s13.35-2.77,17.39-15.98c.01-.04.05-.16-.05-.3-.11-.15-.25-.15-.3-.15h-34.08Z" style="fill: #002c44;"/>
        <path d="m390.09,127.49c-.76,0-1.53.01-2.31.03-3.52-21.09-21.7-37.28-43.67-37.7-2.57-23.31-13.1-44.87-30.13-61.37C295.03,10.11,270.08,0,243.7,0s-51.33,10.11-70.28,28.45c-17.03,16.5-27.56,38.05-30.13,61.37-21.97.43-40.15,16.62-43.67,37.7-.78-.02-1.55-.03-2.31-.03-48.73,0-88.37,39.64-88.37,88.37s36.35,85.25,82.75,88.17h.23s151.77.1,151.77.1h0l151.54-.09h.47c46.4-2.93,82.75-41.66,82.75-88.19s-39.64-88.37-88.37-88.37Zm4.9,161.55l-151.29.09-151.29-.09c-38.41-2.53-68.46-34.64-68.46-73.19,0-40.46,32.91-73.37,73.37-73.37,2.69,0,5.5.16,8.36.49l5.16.58c3.72.64,7.86,1.65,11.83,3.26,2.49,1.01,4.74-1.93,3.03-4.02-2.92-3.56-6.83-7.34-11.61-9.78,1.02-15.73,14.13-28.21,30.11-28.21.18,0,.36.02.54.02,4.79.46,11.29,1.53,17.39,4,2.49,1.01,4.74-1.93,3.03-4.02-2.01-2.45-4.49-5-7.4-7.16.86-22.2,10.12-42.94,26.11-58.43,16.13-15.62,37.38-24.23,59.84-24.23s43.71,8.6,59.84,24.23c16.03,15.53,25.29,36.32,26.12,58.58-2.82,2.12-5.24,4.61-7.2,7.01-1.7,2.08.54,5.02,3.03,4.02,6.17-2.49,12.74-3.56,17.54-4.01.06,0,.13,0,.19,0,16.39,0,29.77,13.14,30.16,29.46-3.59,2.34-6.6,5.36-8.95,8.24-1.7,2.08.54,5.02,3.03,4.02,4.06-1.64,8.28-2.66,12.07-3.3l2.2-.25c2.86-.32,5.67-.49,8.36-.49,40.46,0,73.37,32.91,73.37,73.37s-30.05,70.65-68.46,73.19Z" style="fill: #002c44;"/>
      </g>
    </g>
  </g>
</svg>