<?xml version="1.0" encoding="UTF-8"?>
<svg id="Mascot" xmlns="http://www.w3.org/2000/svg" viewBox="0 0 595.28 841.89">
  <ellipse cx="297.64" cy="704.73" rx="117.49" ry="12.96" style="fill: #002c44;"/>
  <g>
    <path d="m482.49,505.56c-.08.06-.16.12-.23.18-1.03.81-2.57,2.03-2.94,2.56-1.05,1.84-.58,2.18-.21,2.46,1.26.93,3.21.77,3.55.42,0,0,.04-.07.07-.24.27-1.45.21-3.09-.17-5.01-.02-.12-.05-.24-.07-.36Z" style="fill: none;"/>
    <path d="m112.63,510.3c.33.35,2.28.51,3.54-.42.37-.28.84-.62-.24-2.52-.33-.48-1.88-1.69-2.91-2.5-.08-.06-.16-.12-.23-.18-.02.12-.04.24-.07.36-.38,1.9-.43,3.58-.17,5.01.03.18.07.25.07.25Z" style="fill: none;"/>
    <g>
      <path d="m540.34,531.68c-1.22-2.38-3.4-4.1-6-4.72-4.49-1.07-11.73-2.68-17.02-3.85h-.01c3.63-5.75,4.86-12,3.46-18.05-1.64-7.1-6.87-13.13-13.65-15.74-4.97-1.92-11.38-1.26-16.45,1.47-.38-2.1-1.37-4.14-2.96-6.1-5.84-7.19-16.03-9.2-25.99-5.13-2.28.93-4.4,2.15-6.35,3.59-2.07-3.94-5.7-6.85-10.08-7.97-31.46-8.03-55.8-20-72.33-35.58-4.44-4.18-9.17-7.95-14.13-11.3l94.53-.06h.47c46.4-2.93,82.75-41.66,82.75-88.19s-39.64-88.37-88.37-88.37c-.76,0-1.53.01-2.31.03-3.52-21.09-21.7-37.28-43.67-37.7-2.57-23.31-13.1-44.87-30.13-61.37-18.94-18.35-43.9-28.45-70.28-28.45s-51.33,10.11-70.28,28.45c-17.03,16.5-27.56,38.05-30.13,61.37-21.97.43-40.15,16.62-43.67,37.7-.78-.02-1.55-.03-2.31-.03-48.73,0-88.37,39.64-88.37,88.37s36.35,85.25,82.75,88.17h.23s87.38.07,87.38.07c-5.68,3.64-11.6,7.76-15.35,11.3-16.53,15.58-40.87,27.55-72.33,35.58-4.1,1.04-7.54,3.66-9.66,7.21-1.99-1.49-4.17-2.75-6.52-3.71-9.95-4.07-20.15-2.06-25.99,5.13-1.59,1.96-2.58,4.01-2.96,6.1-5.06-2.72-11.48-3.38-16.45-1.47-6.78,2.61-12.01,8.64-13.65,15.74-1.4,6.04-.17,12.29,3.46,18.04-5.3,1.18-12.54,2.78-17.04,3.85-2.6.62-4.78,2.34-6,4.72-1.21,2.37-1.33,5.13-.32,7.58,2.74,6.65,10.42,19.11,31.07,27.9l.96.41,1.05.06c.24.01,1.16.06,2.64.06,9.31,0,40.57-1.93,60.17-26.3.64.62,1.26,1.17,1.85,1.65,3.85,3.16,9.04,4.33,13.87,3.12,23.48-5.87,46.04-13.59,63.13-23.05-.69,8.21-1.26,16.33-1.71,24.34-24-1.91-50.28,3.21-64.68,22.45-6.51,9.16-8.31,21.14-6.61,32.15,3.43,22.16,24.32,36.27,44.22,42.26,23.93,7.48,57.64,9.93,83.51,1.05.1,0,.2,0,.3,0,5.46,9.14,15.12,15.16,30.76,19.26,11.3,2.96,22.41,4.5,32.16,4.5,3.21,0,6.27-.17,9.15-.5,20.48-2.4,27.44-12.64,29.67-20.81.09-.32.16-.64.24-.95,11.48-4.45,21.9-10.48,30.12-17.62,13.66-11.49,24.83-30.22,19.06-48.63-4.26-14.44-17.97-24.08-31.52-28.47-11.65-3.78-24.6-5.05-37.46-4.12-.48-8.33-1.11-16.89-1.88-25.73,17.7,10.02,40.6,18.01,64.13,23.89,4.83,1.21,10.01.04,13.86-3.12.51-.42,1.04-.89,1.59-1.41,19.56,24.99,51.29,26.94,60.68,26.94,1.48,0,2.4-.05,2.64-.06l1.05-.06.96-.41c20.64-8.79,28.32-21.25,31.06-27.9,1.01-2.45.9-5.22-.31-7.58Zm-51.09,10.65l25.29,8.63c-2.48,1.6-5.34,3.16-8.65,4.63-5.93.08-37.34-.78-53.97-24.82l.06-.46c1.87-3.56,3.59-7.9,4.94-13.2,2.02-7.92,2.32-14.78,1.8-20.44,1.95-2.61,4.54-4.68,7.58-5.92,3.9-1.6,9.1-2.03,12.02,1.56.15.18.25.33.32.45-.64.95-2.7,2.58-3.87,3.49-2.23,1.76-4.54,3.58-5.93,6.02-3.1,5.44-3.01,11.06.25,15.42,3.43,4.59,9.93,6.84,15.82,5.47,5.03-1.18,8.6-4.79,9.63-9.7,1.27.85,2.66,1.48,4.08,2.02.92.35,1.99,0,2.52-.87.62-1.01.24-2.34-.8-2.9-1.67-1-3.17-2.22-3.94-3.56-1.63-2.7-.16-5.41,2.15-7.07.33-.23.82-.51,1.31-.71,1.08-.13,2.11-.07,2.9.24,3.04,1.17,5.48,3.99,6.22,7.18.89,3.83-.61,7.97-4.32,11.97-1.31,1.41-2.06,3.22-2.2,5.08l-11.92.36c-2.18.4-2.26,3.49-.1,3.99l17.95,4.27c.18.05.35.12.53.16.61.14,1.51.34,2.59.58l16.21,3.85c-1.15,1.89-2.84,4.17-5.26,6.59-4.36-.83-32.19-6.16-32.19-6.16-2.4-.44-3.32,3.03-1.02,3.84Zm-56.1-11.75c-.2.16-.46.22-.7.16-14.05-3.51-26.92-7.72-38.8-12.68,8.66-14.45,11.09-28.91,10.99-40.81,11.12,4.85,23.43,9.03,36.94,12.48.27.07.48.27.57.54.72,2.06,1.56,5.39,1.73,9.79.14,3.72-.19,8.2-1.51,13.36-.27,1.06-.56,2.05-.86,3-2.67,8.46-6.31,12.47-8.37,14.17Zm-32.62,30.82c25.84,9.02,33.21,30.74,14.48,51.61-6.09,6.68-13.36,12.01-21.3,16.21-2.35,1.25-4.77,2.39-7.23,3.44-.65-2.83-1.74-5.59-3.27-8.23-8.55-14.8-28.98-23.45-43.68-27.95.47-.12.94-.25,1.41-.37.7-.18,1.41-.37,2.11-.55,8.27-2.15,16.53-4.37,24.76-6.68,4.38-1.23,8.76-2.48,13.13-3.76,3.18-1,2.1-5.7-1.18-5.24-4,.64-8,1.32-11.99,1.99-1.83.31-3.66.62-5.49.94-9.84,1.71-19.65,3.54-29.45,5.48-4.6.91-9.19,1.84-13.77,2.8-.87.19-1.74.39-2.62.58-4.6-.34-8.9-.16-13.29.48-.04-.11-.07-.22-.11-.33-.61-1.54-1.79-2.82-3.34-3.53-.5-.23-1.05-.4-1.62-.5l-41.58-7-15.82-2.66-8.64-1.45-5.48-.92-1.48-.25c-4.86-.68-6.26,6.2-1.6,7.51l2.98.77,5.49,1.41,12,3.09,30.34,7.82,16.43,4.23c.86,6.48-.67,13.52-3.43,19.49-.8,1.88-1.83,3.71-2.94,5.49-.7,1.13-1.42,2.25-2.15,3.33-.99,1.33-2.03,2.64-3.05,3.97-23.09,7.2-53.63,4.62-74.54-1.9-22.34-6.87-41.49-22.21-34.59-47.71.08-.27.19-.54.28-.8,3.32-9.92,13.09-16.46,22.94-20,10.86-3.77,22.34-4.99,33.85-4.32,1.84.11,3.67.26,5.51.46,3.03.33,6.04.79,9.05,1.37,13.68,2.6,27.02,7.55,38.98,13.76.95.49,2.14.34,2.95-.44,1.02-.98,1.05-2.6.07-3.62-.55-.57-1.11-1.13-1.69-1.68h29.46c-1.05.9-2.08,1.81-3.07,2.76-.97.93-1.19,2.44-.45,3.62.85,1.36,2.64,1.77,4,.92,5.38-3.36,10.82-6.36,16.51-8.75,7.66-3.1,15.73-5.57,23.95-7.18,3.05-.6,6.13-1.07,9.21-1.42,1.84-.21,3.68-.36,5.52-.47,11.32-.68,22.68.51,33.45,4.16Zm-103.15,75.63c.06-.14.13-.3.2-.45,9.19,6.52,19.49,10.28,28.86,12.42,10,2.28,18.97,2.74,24.42,2.74,2.65,0,4.46-.1,5.17-.15.05.36.09.71.15,1.08-10.23,1.5-24.05.02-37.24-3.43-9.63-2.52-15.06-5.44-18.33-8.37-1.43-1.28-2.45-2.57-3.23-3.83Zm58.31,10.23c0,.44.03.89.06,1.34-2.27.22-6.67.32-12.3-.1-2.02-.15-4.19-.37-6.47-.68-11.59-1.56-26.1-5.37-37.97-13.9-.06-.04-.12-.07-.17-.1.67-1.46,1.43-3.13,2.22-5.01.98-2.33,2-4.97,2.95-7.9,1.26-3.89,1.94-7.32,2.42-10.11,5.94-.09,23.32,1.4,39.81,9,5.12,2.36,10.14,5.31,14.71,8.98-1.9,2.79-3.9,6.8-4.79,12.06-.33,1.97-.51,4.11-.46,6.44Zm7.07-20.88c-15.57-12.49-35.09-16.59-46.82-17.92-1.56-.18-2.97-.3-4.23-.4-2.12-.16-3.75-.21-4.8-.23.06-.36.12-.71.18-1.05,5.58-.63,11.96-.29,22.35,2.43,14.97,3.92,27.16,9.54,34.63,15.77-.37.37-.81.84-1.3,1.41Zm-2.37,25.43c-.28-1.82-.4-3.53-.41-5.14-.01-2.39.24-4.56.67-6.5,1.49-6.76,5.02-10.8,6.52-12.27,1.24,1.33,2.27,2.68,3.05,4.04,1.1,1.9,1.72,3.78,1.92,5.72.17,1.7.02,3.45-.49,5.3-.14.5-.32.96-.53,1.42-1.65,3.64-5.49,6.05-10.74,7.42Zm-35.68-93.14c-.65.35-1.3.72-1.95,1.09h-51.12c-1.28-.81-2.58-1.58-3.92-2.31-5.92-3.21-12.27-5.54-18.66-7.24-2.19-.58-4.46-1.1-6.77-1.57.3-5.23.62-10.46.95-15.7h107.56c.35,5.42.68,10.83.99,16.25-9.6,1.98-18.84,5.19-27.08,9.49Zm34.04-59.2c-2.14-14.02-4.48-28-7.15-41.89-1.08-4.61-7.75-3.44-7.26,1.21,1.32,10.08,2.3,20.43,3.21,30.69.16,1.78.3,3.58.45,5.37h-101.97c1.03-12.04,2.21-24.05,3.67-35.97.6-4.76-6.19-5.91-7.25-1.3-2.79,14.3-5.16,28.63-7.31,42.97l-2.86,1.82c-2.76,1.76-5.61,3.45-8.54,5.09-11.66-16.69-10.62-33.95-8.72-43.39,6.4-4.19,12.2-8.7,17.34-13.54,10.2-9.61,22.14-16.73,35.02-21.08,2.36,12.04,15.1,21.26,30.41,21.26s27.93-9.14,30.38-21.1c12.69,4.36,24.44,11.43,34.5,20.91,4.85,4.57,10.29,8.85,16.26,12.84,2.08,8.36,4.45,26.4-7.02,44.14-3.48-1.95-6.88-3.98-10.18-6.1l-3-1.93Zm-196.86,31.1c-1.92-1.57-5.19-5.15-7.79-12.45-.51-1.43-.99-2.99-1.43-4.72-1.49-5.86-1.73-10.84-1.42-14.81.28-3.69,1.02-6.51,1.65-8.34.09-.27.31-.47.57-.53,13.29-3.39,25.44-7.49,36.42-12.24.19,11.98,3.03,26.3,12.04,40.51-11.88,4.91-24.92,9.14-39.33,12.75-.24.06-.5,0-.7-.16Zm-72.48,24.13c-3.31-1.47-6.17-3.03-8.65-4.63,9.21-3.15,25.28-8.63,25.28-8.63,2.31-.8,1.38-4.28-1.02-3.84l-32.19,6.16c-2.42-2.42-4.11-4.69-5.26-6.59l16.23-3.85c1.08-.24,1.97-.44,2.58-.58.19-.04.36-.11.54-.16l17.95-4.26c2.15-.51,2.08-3.6-.1-3.99l-11.92-.36c-.14-1.87-.89-3.67-2.2-5.08-3.72-4-5.21-8.15-4.33-11.97.74-3.19,3.18-6.01,6.22-7.18,1.93-.74,5.26-.07,7.22,1.39.04.09.09.19.12.28,1.14,3.16-1.67,5.8-4.47,7.42-2.13,1.29-.54,4.59,1.81,3.71,1.21-.39,2.3-.89,3.29-1.47.05.4.11.8.18,1.19.94,5.08,4.56,8.83,9.71,10.03,5.88,1.37,12.38-.88,15.82-5.47,3.26-4.36,3.35-9.98.25-15.42-1.39-2.44-3.7-4.26-5.94-6.02-1.16-.92-3.23-2.54-3.87-3.49.07-.11.17-.26.32-.45,2.91-3.59,8.12-3.16,12.02-1.56,2.97,1.22,5.51,3.22,7.44,5.75-.66,5.86-.46,13.08,1.69,21.5,1.35,5.29,3.07,9.64,4.94,13.2-16.71,23.63-47.76,24.45-53.66,24.39Zm23.33-49.66c.02-.12.05-.24.07-.36.08.06.16.12.23.18,1.02.81,2.57,2.03,2.91,2.5,1.08,1.89.62,2.24.24,2.52-1.26.94-3.21.77-3.54.42,0,0-.04-.06-.07-.25-.26-1.43-.21-3.12.17-5.01Zm51.07-237.86l5.16.58c3.72.64,7.86,1.65,11.83,3.26,2.49,1.01,4.74-1.93,3.03-4.02-2.92-3.56-6.83-7.34-11.61-9.78,1.02-15.73,14.13-28.21,30.11-28.21.18,0,.36.02.54.02,4.79.46,11.29,1.53,17.39,4,2.49,1.01,4.74-1.93,3.03-4.02-2.01-2.45-4.49-5-7.4-7.16.86-22.2,10.12-42.94,26.11-58.43,16.13-15.62,37.38-24.23,59.84-24.23s43.71,8.6,59.84,24.23c16.03,15.53,25.29,36.32,26.12,58.58-2.82,2.12-5.24,4.61-7.2,7.01-1.7,2.08.54,5.02,3.03,4.02,6.17-2.49,12.74-3.56,17.54-4.01.06,0,.13,0,.19,0,16.39,0,29.77,13.14,30.16,29.46-3.59,2.34-6.6,5.36-8.95,8.24-1.7,2.08.54,5.02,3.03,4.02,4.06-1.64,8.28-2.66,12.07-3.3l2.2-.25c2.86-.32,5.67-.49,8.36-.49,40.46,0,73.37,32.91,73.37,73.37s-30.05,70.65-68.46,73.19l-126.91.08h-24.39s-32.99,0-32.99,0l-118.31-.07c-38.41-2.53-68.46-34.64-68.46-73.19,0-40.46,32.91-73.37,73.37-73.37,2.69,0,5.5.16,8.36.49Zm138.02,161.16h4.17c-2.03,1.62-4.97,2.66-8.2,2.66s-6.17-1.05-8.2-2.67h12.23Zm-23.07,0c2.58,6.76,10.14,11.67,19.05,11.67s16.47-4.91,19.04-11.67h2.4c-1.85,7.6-10.76,13.38-21.45,13.38s-19.6-5.78-21.45-13.38h2.4Zm203.97,82.61c-.03.18-.07.24-.07.24-.34.35-2.29.52-3.55-.42-.37-.28-.84-.62.21-2.46.37-.53,1.92-1.75,2.94-2.56.08-.06.16-.12.23-.18.02.12.04.24.07.36.38,1.92.43,3.56.17,5.01Z" style="fill: #002c44;"/>
      <path d="m318.03,617.24c-.81-.92-2.21-1-3.12-.19-7.57,6.7-6.83,14.26-6.24,16.97.13.6.25.96.28,1.03.32.92,1.17,1.49,2.09,1.49.24,0,.48-.04.72-.12.32-.11.59-.29.81-.5.6-.58.85-1.47.56-2.31-.01-.04-.65-2-.22-4.76.19-1.25.61-2.65,1.41-4.12.77-1.43,1.89-2.92,3.52-4.36.92-.81,1-2.21.19-3.12Z" style="fill: #002c44;"/>
      <path d="m327.13,620.04c-.78-.88-2.14-.97-3.02-.18-8.92,7.9-5.9,17.03-5.77,17.41.15.44.43.8.79,1.04.36.25.78.39,1.23.39,0,0,.02,0,.03,0,.22,0,.44-.04.66-.11,1.11-.38,1.71-1.59,1.34-2.71-.05-.14-.62-2.01-.22-4.59.19-1.22.6-2.59,1.38-4.03.75-1.38,1.83-2.81,3.4-4.2.88-.78.97-2.14.18-3.02Z" style="fill: #002c44;"/>
      <path d="m333.53,622.51c-8.92,7.9-5.9,17.03-5.77,17.41.07.19.17.37.28.53.4.57,1.04.91,1.73.91.23,0,.46-.04.69-.11.22-.07.42-.19.59-.32.71-.54,1.05-1.49.75-2.38-.05-.14-.62-2-.23-4.59.19-1.22.6-2.6,1.38-4.04.75-1.38,1.83-2.8,3.4-4.2.88-.78.97-2.14.18-3.02-.78-.88-2.14-.97-3.02-.18Z" style="fill: #002c44;"/>
      <path d="m245.73,311.56c1.71-5.57,3.73-12.51,8.78-15.04,1.43-.6,2.66-.07,3.92.84,4.03,3.5,5.71,8.81,7.33,14.31.58,2.08,3.65,2.02,4.13-.11,2.52-9.65-2.27-24.36-14.15-24.75-11.89.38-16.68,15.1-14.16,24.75.48,2.17,3.66,2.19,4.16,0Z" style="fill: #002c44;"/>
      <path d="m212.78,297.33h3.62c-.15,1.39-.23,2.79-.23,4.22,0,21.81,17.74,39.56,39.55,39.56,20.19,0,36.88-15.2,39.25-34.75,2.7-.93,8.29-2.25,13.54.07,2.41,19.52,19.08,34.68,39.24,34.68,21.81,0,39.56-17.74,39.56-39.56,0-1.43-.08-2.83-.23-4.22h3.62c3.04,0,5.5-2.46,5.5-5.5s-2.46-5.5-5.5-5.5h-6.44c-5.97-14.28-20.09-24.34-36.51-24.34-19.89,0-36.39,14.76-39.14,33.9-5.18-1.31-10.1-.77-13.73.09-2.71-19.18-19.23-33.99-39.16-33.99-16.42,0-30.53,10.06-36.51,24.34h-6.44c-3.04,0-5.5,2.46-5.5,5.5s2.46,5.5,5.5,5.5Zm134.98-25.34c16.3,0,29.56,13.26,29.56,29.56s-13.26,29.56-29.56,29.56-29.55-13.26-29.55-29.56,13.26-29.56,29.55-29.56Zm-92.03,0c16.3,0,29.56,13.26,29.56,29.56s-13.26,29.56-29.56,29.56-29.55-13.26-29.55-29.56,13.26-29.56,29.55-29.56Z" style="fill: #002c44;"/>
      <path d="m335.1,313.13c1.13.32,2.31-.33,2.64-1.46,1.71-5.6,3.73-12.61,8.81-15.15,1.43-.6,2.66-.07,3.91.85,4,3.48,5.67,8.73,7.3,14.2.19.77.78,1.41,1.6,1.6,1.15.26,2.29-.45,2.56-1.6,1.04-4.53.87-9.46-.95-14.21-5.26-13.95-21.15-13.95-26.41,0-1.82,4.75-1.99,9.68-.95,14.21.17.73.72,1.35,1.49,1.57Z" style="fill: #002c44;"/>
      <path d="m242.56,255.08c3.26-2.62,7.16-4.65,11.1-5.81,3.93-1.17,7.95-1.36,11.74-.69,2.92.53,5.71-1.66,5.87-4.62.17-2.77-1.94-5.15-4.71-5.31-5.48-.34-10.95.65-15.77,2.72-4.84,2.07-9.1,4.96-12.77,8.64-2.94,3.05,1.16,7.65,4.53,5.06Z" style="fill: #002c44;"/>
      <path d="m338.1,248.59c7.88-1.5,16.48,1.4,22.77,6.43,3.34,2.72,7.59-1.88,4.61-5-3.66-3.67-7.92-6.57-12.77-8.64-4.98-2.12-10.72-3.18-16.36-2.65-6.49,1.36-4.8,10.82,1.74,9.86Z" style="fill: #002c44;"/>
      <path d="m318.86,338.66h-34.08c-2.36,0-4.52,1.09-5.93,2.99-1.4,1.89-1.81,4.26-1.12,6.51,4.08,13.3,12.86,20.93,24.09,20.93s20.01-7.63,24.09-20.93c.69-2.25.28-4.62-1.12-6.51-1.41-1.9-3.57-2.99-5.93-2.99Zm-17.04,23.43c-3.61,0-8.01-1.12-11.77-5.3,2.77-3.63,7.13-5.98,12.04-5.98s9.01,2.21,11.79,5.65c-3.83,4.45-8.35,5.62-12.06,5.62Z" style="fill: #002c44;"/>
    </g>
  </g>
</svg>