<?xml version="1.0" encoding="UTF-8"?>
<svg xmlns="http://www.w3.org/2000/svg" viewBox="0 0 841.89 841.89">
  <g style="isolation: isolate;">
    <g id="Logo">
      <g>
        <g>
          <path d="m334.83,77.82c-4.63-1.35-9.44-2.15-14.14-2.62-6.78-.68-13.33-.68,14.14,2.62Zm208.62,20.78c-3.1-12.15-12.13-20.07-23.95-21.25-1.02-.1-2.07-.15-3.13-.15-3.61,0-7.16.71-10.45,2.08-2.69-1.06-5.58-1.74-8.64-2.05-1.24-.12-2.5-.19-3.79-.19-4.87,0-9.36.8-13.41,2.38-2.64-1.07-5.48-1.77-8.41-2.06-1.07-.11-2.14-.16-3.23-.16-11.08,0-20.6,5.5-25.74,14.78-11.46-9.65-26.18-15.41-43.95-17.19-3.97-.4-8.1-.6-12.37-.6-14.39,0-29.29.67-41.14,7.95-3.26-1.85-6.77-3.25-43.32-7.61-17.87,0-47.78,0-60.01,24.92-5.71,11.43-8.37,27.91-8.37,51.88s2.17,39.8,7,50.84c-3.3,1.1-6.37,2.53-9.2,4.26-6.11-4.05-13.61-6.53-22.41-7.41-2.43-.24-4.95-.37-7.57-.37-19.95,0-38.72,6.93-52.87,19.52-15.96,14.2-24.39,34.05-24.39,57.41s7.41,43.58,21.44,57.89l123.94,126.4c.11.11.23.23.34.34,7.29,7.25,17.34,11.25,28.29,11.25h.49c7.08,0,13.19-1.73,17.88-5.02,4.8,3.21,10.92,4.84,18.24,4.84,7.98,0,18.88-.88,26.14-7.72,6.84,5.19,15.14,7.91,24.26,7.91,11.11,0,21.05-4,28.49-11.37,6.91,7.22,17.12,11,29.85,11,9.91,0,18.1-2.4,24.42-7.14,6.56,6.87,16.56,7.51,27.1,7.51s19.45-2.35,26.65-6.84c4.7,4.54,11.59,6.84,20.57,6.84,10.06,0,7.2,7.03,14.5,2.59,2.51-1.53,4.72-3.26,6.63-5.17l139.08-136.27c10.02-10.03,15.4-22.78,15.4-37.01,0-12.74-3.33-23.43-9.91-31.89,4.17-6.26,6.35-13.83,6.35-22.25,0-9.39-3.11-38.61-40.94-42.41-2.66-.27-5.48-.41-8.5-.41-20.96,0-39.6,6.52-52.37,18.1-4.5-3.81-9.54-7.04-15.07-9.67,1.27-3.28,1.92-6.87,1.92-10.68,0-3.95-.76-7.77-2.23-11.22.6-2.34.91-4.79.91-7.32,0-2.22-.25-4.41-.73-6.52l.12-.3c1.33-3.35,2.01-7,2.01-10.87,0-11.88-6.83-21.89-17.82-26.15-3.36-1.3-6.96-2.04-10.91-2.43-3.24-.33-6.72-.42-10.52-.42s-9.29,0-14.81,1.26c.09-2.48.14-5.2.14-8.24,0-10.84-.58-18.9-1.78-24.65-.07-.31-.14-.62-.22-.94Z" style="fill: #8fa4ff;"/>
          <path d="m197.58,354.54c-19.9,0-38.17-7.26-51.43-20.45-14.43-14.35-22.06-34.59-22.06-58.51s8.43-43.21,24.39-57.41c14.15-12.59,32.93-19.52,52.87-19.52,12.13,0,22.18,2.61,29.98,7.78,2.83-1.74,5.9-3.16,9.2-4.26-4.83-11.05-7-26.91-7-50.84s2.66-40.45,8.37-51.88c12.23-24.92,42.14-24.92,60.01-24.92,12.17,0,29.9,0,43.32,7.61,11.85-7.27,26.75-7.95,41.14-7.95,23.39,0,42.3,5.98,56.32,17.79,5.14-9.28,14.65-14.78,25.74-14.78,4.09,0,8.05.76,11.65,2.23,4.05-1.58,8.54-2.38,13.41-2.38,4.48,0,8.65.75,12.43,2.24,3.29-1.37,6.84-2.08,10.45-2.08,13.34,0,23.71,8.2,27.08,21.41.08.32.15.63.22.94,1.2,5.76,1.78,13.82,1.78,24.65,0,3.03-.04,5.76-.14,8.24,5.52-1.26,10.85-1.26,14.81-1.26,8.43,0,15.31.49,21.43,2.86,10.99,4.25,17.82,14.27,17.82,26.15,0,3.99-.71,7.73-2.13,11.17.49,2.11.73,4.29.73,6.52,0,2.53-.3,4.98-.91,7.32,1.46,3.45,2.23,7.27,2.23,11.22s-.65,7.4-1.92,10.68c5.53,2.63,10.57,5.86,15.07,9.67,12.77-11.58,31.4-18.1,52.37-18.1,45.87,0,49.44,32.77,49.44,42.82,0,8.42-2.18,15.99-6.35,22.25,6.58,8.45,9.91,19.15,9.91,31.89,0,19.15-9.76,35.64-27.47,46.41-13.28,8.08-30.67,12.53-48.95,12.53-16.33,0-28.87-4.18-37.41-12.44-13.09,8.16-29.68,12.44-48.46,12.44s-37.36-1.17-49.28-13.66c-11.49,8.62-26.38,12.98-44.4,12.98-23.15,0-41.71-6.88-54.27-20-13.51,13.4-31.59,20.68-51.79,20.68-16.57,0-31.67-4.95-44.11-14.37-13.2,12.44-33.02,14.03-47.53,14.03-13.32,0-24.44-2.95-33.17-8.79-8.53,5.99-19.63,9.13-32.51,9.14h-.89Z" style="fill: #8fa4ff;"/>
        </g>
        <path d="m698.27,263.97c5.55-5.57,8.66-13.33,8.66-22.51,0-10.68-4.1-35.5-42.12-35.5-22.6,0-41.31,8.09-52.16,21.11-.4-.43-.8-.87-1.21-1.3-6.73-6.79-15.01-11.84-24.76-15.14,2.83-3.04,5.3-7.59,5.3-14.23,0-4-1-7.61-2.79-10.63.95-2.38,1.47-5.04,1.47-7.91,0-2.44-.4-4.88-1.21-7.17,1.68-3.01,2.61-6.57,2.61-10.52,0-8.92-4.91-16.14-13.14-19.33-5.07-1.96-11.18-2.36-18.79-2.36-5.34,0-12.98.02-19.42,3.28-1.03-.62-2.13-1.14-3.27-1.58.48-4.21.7-9.4.7-15.99,0-10.33-.53-17.9-1.63-23.15-.04-.21-.09-.42-.15-.63-2.54-9.96-10.01-15.9-19.99-15.9-3.53,0-7.15.94-10.34,2.9-3.34-1.88-7.45-3.05-12.54-3.05-5.69,0-10.08,1.29-13.49,3.16-3.33-1.95-7.26-3-11.56-3-8.88,0-16.12,4.39-19.87,12.04-1.28,2.58-2.11,5.54-2.64,9.15-1.26-1.57-2.6-3.08-4.03-4.52-12.94-13.06-31.62-19.68-55.52-19.68-15.7,0-30.63.9-40.99,9.5-11.71-9.15-30.41-9.16-43.47-9.16-21.87,0-44.01,1.62-53.47,20.87-5.19,10.37-7.6,25.82-7.6,48.61,0,24.38,2.24,39.73,7.26,49.78,1.12,2.23,2.4,4.21,3.84,5.99-9.08,1.12-15.81,4.28-20.8,8.46-6.02-5.55-15.35-9.58-29.8-9.58-34.76,0-69.95,23.91-69.95,69.61,0,21.94,6.88,40.38,19.9,53.33,11.88,11.82,28.32,18.32,46.29,18.32h.88c15.04,0,25.51-4.54,32.38-11.17,7.93,7.18,19.05,10.83,33.29,10.83,17.38,0,36.53-2.42,46.76-16.94,11.6,10.91,27.11,17.28,44.88,17.28,21.63,0,39.97-9.28,52.03-24.61,13.09,18.9,34.74,23.93,54.03,23.93,15.66,0,32.95-3.63,45.48-16.28,9.36,15.62,27.4,16.96,48.2,16.96s37.17-5.14,49.71-14.91c5.57,8.05,16.18,14.91,36.15,14.91,16.96,0,33-4.07,45.15-11.47,15.45-9.4,23.95-23.66,23.95-40.16s-5.65-25.43-12.22-31.62Z" style="fill: #fff;"/>
        <g>
          <path d="m461.68,145.99c-1.47-2.87-2.02-9.23-2.02-21.8s.54-18.23,2.02-21.18c1.32-2.71,3.49-3.88,6.75-3.88s5.43,1.24,6.75,3.88c1.47,2.87,2.02,8.77,2.02,21.18s-.54,18.77-2.02,21.8c-1.32,2.56-3.49,3.72-6.75,3.72s-5.43-1.16-6.75-3.72Z" style="fill: #8fa4ff;"/>
          <path d="m482.94,144.12c-1.16-4.11-1.47-10.78-1.47-19.94,0-8.45.39-15.05,1.71-19.24,1.47-4.11,4.81-5.97,10.32-5.97s9.54,2.02,12.72,15.2c2.56,10.24,2.87,11.33,3.8,11.33.62,0,.85-.7.85-1.71,0-4.73-.16-8.77-.16-16.14,0-6.05,2.48-8.53,5.66-8.53,2.71,0,4.81.93,5.82,4.89.78,3.72,1.32,10.01,1.32,20.17,0,9.15-.47,16.21-1.71,20.09-1.32,3.88-4.34,5.51-9.31,5.51-6.52,0-9.7-3.8-13.5-19.01-2.17-8.38-2.25-9.62-3.26-9.62-.62,0-.93.39-.93,2.02,0,4.58.23,11.4.23,17.61s-2.02,8.92-5.74,8.92c-3.26,0-5.35-1.78-6.36-5.59Z" style="fill: #8fa4ff;"/>
          <path d="m467.58,194.61c0-5.82.31-20.25.31-23.12,0-1.78-.47-2.25-1.71-2.25h-3.1c-2.87,0-5.2-1.55-5.2-7.14,0-7.14,2.95-9,18.23-9s18.31,1.86,18.31,9c0,5.58-2.4,7.14-5.2,7.14h-3.18c-1.24,0-1.78.47-1.78,2.25,0,2.87.39,17.3.39,23.12,0,6.98-3.57,9.23-8.45,9.23s-8.61-2.25-8.61-9.23Z" style="fill: #8fa4ff;"/>
          <path d="m497.91,195.77c-.7-4.27-1.01-10.01-1.01-17.45s.31-13.03,1.01-17.38c1.01-4.89,3.65-7.68,8.14-7.68s6.67,2.25,6.75,6.28c.16,2.09.16,5.12.16,6.75s.23,2.48,2.02,2.56h4.96c1.94-.08,2.25-1.01,2.25-2.56,0-1.86.08-4.81.16-6.75.08-4.03,2.17-6.28,6.67-6.28s7.29,2.79,8.22,7.68c.7,4.34,1.01,10.08,1.01,17.38s-.31,13.19-1.01,17.45c-.93,5.12-3.49,8.07-7.68,8.07-4.81,0-7.14-3.1-7.21-8.3-.08-2.71-.16-6.75-.16-9.77,0-1.63-.31-2.48-2.17-2.56h-5.12c-1.71.08-1.94.93-1.94,2.56,0,2.95-.08,7.06-.16,9.77,0,5.27-2.4,8.3-7.21,8.3-4.19,0-6.67-2.87-7.68-8.07Z" style="fill: #8fa4ff;"/>
          <path d="m544.61,199.5c-1.24-2.64-2.02-10.78-2.02-21.18s.78-18.15,2.09-20.87c1.63-3.26,5.28-4.34,15.44-4.34,12.96,0,17.3,1.32,17.3,7.06,0,3.96-2.02,5.97-6.67,5.97-3.57,0-6.9-.16-10.24-.16-1.47,0-2.09.31-2.17,1.94-.08,1.09-.08,2.25-.08,3.26,0,1.4.62,1.71,2.09,1.71,3.8,0,5.9-.15,9.39-.15,4.58,0,6.28,1.63,6.28,5.12s-1.78,5.12-5.82,5.12c-2.95,0-6.59-.16-10.24-.16-1.16,0-1.63.54-1.63,1.32,0,2.33,0,5.04.08,5.43.08,1.09.62,1.63,1.78,1.63h12.1c2.95,0,5.04,1.55,5.04,5.2,0,4.65-2.48,7.6-16.91,7.6-10.63,0-14.2-1.4-15.83-4.5Z" style="fill: #8fa4ff;"/>
        </g>
        <g>
          <path d="m261.2,194.55c-3.87-7.74-5.72-21.87-5.72-43.24,0-20.02,2.02-33.99,6.06-42.06,4.54-9.25,14.3-12.79,40.38-12.79,28.6,0,39.71,3.36,39.71,19.85,0,11.11-5.72,16.99-18.84,16.99-8.58,0-11.11-.34-17.5-.34-2.52,0-4.21,1.01-4.21,3.7v.5c0,1.68,1.18,2.69,4.04,2.69,6.9,0,10.77-.34,16.99-.34,10.94,0,15.65,3.87,15.65,12.45s-4.37,12.62-14.3,12.62c-5.55,0-11.11-.34-18.51-.34-2.69,0-4.04,1.18-4.04,2.86v.84c0,1.85,1.68,3.03,3.7,3.03h24.06c8.07,0,13.12,4.88,13.12,14.64,0,12.45-5.38,21.2-40.04,21.2-26.41,0-36.01-3.2-40.55-12.28Z" style="fill: #8fa4ff;"/>
          <path d="m350.2,195.9c-4.21-8.58-6.22-22.55-6.22-44.76,0-20.53,2.02-34.49,6.22-43.07,4.37-8.58,12.28-11.95,36.17-11.95,36.85,0,59.05,18.17,58.72,54.34.34,38.36-22.55,56.7-58.72,56.7-24.06,0-31.97-2.69-36.17-11.27Zm51.82-46.27c0-4.88-4.21-6.56-9.76-6.56-3.03,0-4.37.84-4.37,6.73,0,5.38,1.01,7.07,4.04,7.07,5.55,0,10.1-2.36,10.1-7.23Z" style="fill: #8fa4ff;"/>
        </g>
        <g>
          <path d="m146.03,275.57c0-36.66,27.49-54.98,55.32-54.98,19.01,0,25.79,8.31,25.79,22.06,0,22.06-20.87,22.57-27.66,29.36-1.36,1.36-2.21,3.05-2.21,5.09s.85,3.9,2.21,5.26c5.77,5.77,27.66,4.24,27.66,26.81,0,13.92-9.33,23.59-29.19,23.42-27.32.17-51.93-18.33-51.93-57.02Z" style="fill: #8fa4ff;"/>
          <path d="m234.78,316.81c-4.58-10.18-6.45-27.66-6.45-39.54,0-10.52.51-24.27,4.75-38.01,3.39-12.22,11.37-17.99,26.3-17.99,16.8,0,21.72,10.69,21.72,31.06,0,7.47-1.02,15.1-1.02,19.85,0,6.96,2.38,8.32,6.62,8.32h1.19c6.79,0,15.78,3.05,15.78,21.55,0,23.08-11.2,30.21-39.54,30.21-18.84,0-25.79-7.3-29.36-15.44Z" style="fill: #8fa4ff;"/>
          <path d="m303.68,275.57c0-35.13,22.91-54.98,52.1-54.98s52.78,19.69,52.78,54.81-23.76,57.19-52.78,57.19-52.1-21.72-52.1-57.02Zm59.39-1.02c0-4.41-3.05-6.96-7.13-6.96s-6.96,2.55-6.96,6.96,2.71,7.3,6.96,7.3,7.13-2.88,7.13-7.3Z" style="fill: #8fa4ff;"/>
          <path d="m410.43,276.08c0-18.67.85-33.26,5.6-42.59,3.9-7.97,10.35-12.22,21.38-12.22,13.07,0,20.53,6.62,20.53,24.61,0,10.86-.34,19.52-.34,29.02,0,4.07,1.53,5.6,4.41,5.6,2.21,0,4.07-1.53,4.07-5.6,0-9.5-.34-18.16-.34-29.02,0-17.99,7.13-24.61,20.53-24.61,9.16,0,14.76,4.07,18.5,11.54,4.58,9.16,5.6,24.1,5.6,43.27,0,36.66-14.59,55.83-48.53,55.83-36.32,0-51.42-19.18-51.42-55.83Z" style="fill: #8fa4ff;"/>
          <path d="m519.04,321.22c-4.24-8.65-6.28-22.74-6.28-45.14,0-20.7,2.04-34.79,6.28-43.44,4.41-8.65,12.39-12.05,36.49-12.05,37.16,0,59.56,18.33,59.22,54.81.34,38.69-22.74,57.19-59.22,57.19-24.27,0-32.24-2.72-36.49-11.37Zm52.27-46.67c0-4.92-4.24-6.62-9.84-6.62-3.05,0-4.41.85-4.41,6.79,0,5.43,1.02,7.13,4.07,7.13,5.6,0,10.18-2.38,10.18-7.3Z" style="fill: #8fa4ff;"/>
          <path d="m613.9,311.71c0-12.73,9.67-16.12,17.48-17.31,5.77-.85,10.35-1.36,10.35-4.41,0-6.62-24.61-5.09-24.61-34.96,0-22.23,23.59-34.45,47.69-34.45,20.19,0,27.49,7.98,27.49,20.87s-8.15,15.95-14.76,16.97c-4.24.68-7.47,1.36-7.47,4.41,0,6.62,25.79,3.56,25.79,32.75,0,24.44-26.98,37-54.47,37-20.19,0-27.49-7.98-27.49-20.87Z" style="fill: #8fa4ff;"/>
        </g>
        <g>
          <ellipse cx="410.46" cy="758.54" rx="79.38" ry="8.76" style="fill: #002c44;"/>
          <g>
            <path d="m512.36,623.75c.75-6,4.55-11.28,10.14-13.57,4.91-2.01,9.94-1.31,12.84,2.26,4.33,5.33-4.25,8.21-6.02,11.32-4.65,8.17,8.59,11.39,9.85,4.58.3-1.63.2-3.29-.12-4.92-1.01-5.1,6.58-8.36,11.12-6.62,6.18,2.38,10.63,11.11,2.81,19.53-.82.89-.38,2.33.8,2.6,2.35.54,10.87,2.39,15.31,3.45,1.23.29,1.92,1.61,1.44,2.78-1.53,3.7-6.06,11.22-18.81,16.65,0,0-28.02,1.67-41.61-19.84l2.27-18.24Z" style="fill: #f5caa1;"/>
            <path d="m307.82,623.15c-.75-6-4.55-11.28-10.14-13.57-4.91-2.01-9.94-1.31-12.84,2.26-4.33,5.33,4.25,8.21,6.02,11.32,4.65,8.17-8.59,11.39-9.85,4.58-.3-1.63-.2-3.29.12-4.92,1.01-5.1-6.58-8.36-11.12-6.62-6.18,2.38-10.63,11.11-2.81,19.53.82.89.38,2.33-.8,2.6-2.35.54-10.87,2.39-15.31,3.45-1.23.29-1.92,1.61-1.44,2.78,1.53,3.7,6.06,11.22,18.81,16.65,0,0,28.02,1.67,41.61-19.84l-2.27-18.24Z" style="fill: #f5caa1;"/>
            <path d="m573.28,641.61c-.82-1.61-2.3-2.77-4.06-3.19-3.04-.72-7.93-1.81-11.5-2.6h0c2.46-3.89,3.28-8.11,2.34-12.19-1.11-4.79-4.64-8.87-9.23-10.63-3.36-1.3-7.69-.85-11.11.99-.26-1.42-.93-2.8-2-4.12-3.94-4.86-10.83-6.22-17.56-3.47-6.86,2.81-11.7,9.26-12.64,16.85l-2.45,19.69.78,1.24c12.82,20.28,36.75,21.77,43.52,21.77,1,0,1.62-.03,1.78-.04l.71-.04.65-.28c13.95-5.94,19.14-14.36,20.99-18.85.68-1.66.61-3.52-.21-5.12Zm-41.24-15.79c.25-.36,1.29-1.18,1.99-1.73.05-.04.1-.08.16-.12.01.08.03.16.04.25.26,1.3.29,2.41.11,3.38-.02.12-.05.16-.05.16-.23.24-1.54.35-2.4-.28-.25-.19-.57-.42.14-1.66Zm17.95,31.95c-4.01.06-25.23-.53-36.46-16.77l2.08-16.74c.58-4.66,3.5-8.61,7.63-10.3,2.63-1.08,6.15-1.37,8.12,1.06.1.12.17.23.22.3-.43.64-1.83,1.74-2.61,2.36-1.51,1.19-3.07,2.42-4.01,4.07-2.09,3.68-2.03,7.47.17,10.42,2.32,3.1,6.71,4.62,10.69,3.7,3.47-.81,5.93-3.35,6.56-6.78.37-1.98.32-4.15-.13-6.45-.02-.1-.08-.39.57-.94,1.29-1.09,3.71-1.6,5.07-1.07,2.05.79,3.71,2.7,4.2,4.85.6,2.59-.41,5.38-2.92,8.09-.88.95-1.39,2.17-1.49,3.43l-8.05.24c-1.47.27-1.52,2.36-.07,2.7l12.13,2.88c.12.04.24.08.36.11.41.09,1.02.23,1.75.39l10.95,2.6c-.78,1.28-1.92,2.82-3.56,4.45-2.95-.56-21.75-4.16-21.75-4.16-1.62-.3-2.25,2.05-.69,2.6l17.08,5.83c-1.68,1.08-3.61,2.14-5.85,3.13Z" style="fill: #002c44;"/>
            <path d="m298.43,605.8c-6.72-2.75-13.61-1.39-17.56,3.47-1.08,1.33-1.75,2.71-2,4.12-3.42-1.84-7.75-2.29-11.11-.99-4.58,1.77-8.12,5.84-9.23,10.63-.94,4.08-.12,8.3,2.34,12.19-3.58.8-8.47,1.88-11.51,2.6-1.75.42-3.23,1.58-4.05,3.19-.82,1.6-.9,3.47-.21,5.12,1.85,4.49,7.04,12.91,20.99,18.85l.65.28.71.04c.16,0,.78.04,1.78.04,6.77,0,30.7-1.5,43.52-21.77l.78-1.24-2.45-19.69c-.94-7.59-5.79-14.04-12.64-16.85Zm-14.08,17.82c.02-.08.03-.16.04-.25.05.04.11.08.16.12.69.55,1.74,1.37,1.96,1.69.73,1.28.42,1.51.16,1.7-.85.63-2.17.52-2.39.28,0,0-.03-.04-.05-.17-.18-.97-.14-2.1.11-3.39Zm-15.76,33.55c-2.24-.99-4.17-2.05-5.85-3.13,6.23-2.13,17.08-5.83,17.08-5.83,1.56-.54.94-2.89-.69-2.6l-21.75,4.16c-1.64-1.63-2.78-3.17-3.55-4.45l10.96-2.6c.73-.16,1.33-.3,1.74-.39.13-.03.24-.07.37-.11l12.13-2.88c1.46-.34,1.4-2.43-.07-2.7l-8.05-.24c-.1-1.26-.6-2.48-1.49-3.43-2.51-2.71-3.52-5.5-2.92-8.09.5-2.16,2.15-4.06,4.2-4.85,1.36-.52,3.78-.01,5.07,1.07.65.54.59.84.57.94-.45,2.3-.5,4.47-.13,6.45.63,3.43,3.08,5.96,6.56,6.78,3.97.93,8.37-.59,10.69-3.7,2.2-2.95,2.26-6.75.17-10.42-.94-1.65-2.5-2.88-4.01-4.07-.78-.62-2.18-1.72-2.61-2.36.05-.08.12-.18.22-.3,1.97-2.42,5.48-2.13,8.12-1.06,4.13,1.69,7.05,5.64,7.63,10.3l2.08,16.74c-11.24,16.25-32.45,16.81-36.46,16.77Z" style="fill: #002c44;"/>
            <path d="m512,630.52c-2.09,8.19-5.53,12.3-7.93,14.26-1.37,1.13-3.2,1.54-4.92,1.11-10.22-2.55-19.45-5.61-27.84-9.19-5.27-2.23-10.22-4.67-14.88-7.31-2.26-1.28-4.45-2.6-6.57-3.97,1.73,16.44,3.13,35.27,3.13,54.45h-88.09c0-19.04,1.24-37.43,2.95-53.78-2.51,1.59-5.1,3.11-7.78,4.57-3.95,2.14-8.1,4.13-12.47,5.97-8.51,3.59-17.88,6.65-28.33,9.26-1.72.43-3.55.02-4.92-1.11-2.4-1.97-5.84-6.07-7.93-14.26-2.21-8.68-.93-15.08.28-18.55.62-1.78,2.09-3.14,3.93-3.61,10.2-2.61,18.8-5.69,26.04-8.99,6.4-2.92,11.74-6.02,16.2-9.12,3.46-2.41,6.39-4.82,8.86-7.15,3.87-3.65,8.12-6.82,12.64-9.47,2.99-1.76,6.1-3.28,9.3-4.57,4.79-1.92,9.8-3.3,14.94-4.1,3.49-.55,7.04-.83,10.61-.83,3.85,0,7.66.32,11.41.96,8.7,1.47,17.03,4.59,24.54,9.2,4.12,2.51,7.99,5.45,11.55,8.81,2.7,2.55,5.94,5.18,9.82,7.8,4.14,2.8,9.01,5.59,14.74,8.24,7.34,3.39,16.11,6.55,26.54,9.22,1.83.47,3.3,1.83,3.92,3.61,1.2,3.47,2.49,9.87.28,18.55Z" style="fill: #ffb45a;"/>
            <path d="m420.67,566.04c0,5.24-4.96,9.49-11.07,9.49s-11.07-4.24-11.07-9.49c0-.36.03-.73.07-1.09,3.49-.55,7.04-.83,10.61-.83,3.85,0,7.66.32,11.41.96.03.32.05.64.05.96Z" style="fill: #f5caa1;"/>
            <path d="m471.31,636.7c-5.27-2.23-10.22-4.67-14.88-7.31,14.5-17.13,7.12-36.33,6.8-37.16l3.28-1.34c4.14,2.8,9.01,5.59,14.74,8.24,1.06,9.86.03,23.98-9.95,37.57Z" style="fill: #664323;"/>
            <path d="m362.16,628.81l-2.09,1.84c-3.95,2.14-8.1,4.13-12.47,5.97-10.28-13.3-11.77-27.22-10.94-37.27,6.4-2.92,11.74-6.02,16.2-9.12l1.98.8c-.33.83-7.88,20.49,7.32,37.78Z" style="fill: #664323;"/>
            <rect x="370.4" y="616.72" width="77.74" height="25.74" style="fill: #664323;"/>
            <path d="m516.51,610.3h0c-1.18-3.41-3.97-5.97-7.46-6.86-21.26-5.42-37.7-13.51-48.87-24.04-6.19-5.84-13.22-10.5-20.77-13.89l-.37-.17c-9.33-4.12-19.45-6.29-29.83-6.29s-20.53,2.18-29.87,6.31c0,0-14.9,8.19-21.1,14.04-11.17,10.53-27.61,18.61-48.87,24.04-3.49.89-6.27,3.45-7.46,6.86-1.54,4.45-2.87,11.79-.4,21.47,2.4,9.43,6.56,14.41,9.62,16.92,2.6,2.14,6.11,2.93,9.37,2.11,15.86-3.97,31.11-9.18,42.65-15.57-1.31,15.49-1.97,30.52-1.97,44.81v5.11h95.53v-5.11c0-14.12-.69-29.05-2.12-45.38,11.96,6.77,27.43,12.17,43.33,16.14,3.26.82,6.76.03,9.37-2.1,3.06-2.52,7.22-7.49,9.63-16.93,2.47-9.68,1.14-17.02-.4-21.47Zm-9.42,18.97c-1.82,7.13-4.69,10.33-6.24,11.6-.13.11-.31.15-.47.11-18.7-4.68-34.33-11.16-47.78-19.82l-2.03-1.31c-1.44-9.47-3.03-18.92-4.83-28.3-.73-3.12-5.24-2.32-4.91.82.89,6.81,1.55,13.81,2.17,20.74,1.78,20.35,3.01,41.26,4.01,61.71h-76.3c.12-2.44.48-9.63.48-9.63,1.36-24.2,2.76-48.73,5.69-72.75.41-3.22-4.18-3.99-4.9-.88-1.89,9.66-3.48,19.34-4.94,29.04l-1.93,1.23c-12.87,8.19-28.27,14.46-47.09,19.17-.16.04-.34,0-.48-.11-1.55-1.27-4.42-4.47-6.23-11.59-1.94-7.62-.74-13.07.15-15.65.06-.18.21-.31.39-.36,22.94-5.85,40.88-14.77,53.32-26.48,12.04-11.34,27.67-17.59,44.02-17.59s31.99,6.25,44.02,17.59c12.44,11.72,30.38,20.63,53.32,26.48.18.05.32.18.39.36.89,2.57,2.1,8.02.15,15.64Z" style="fill: #002c44;"/>
            <path d="m409.4,579.67c-7.45,0-13.51-5.08-13.51-11.32h6.08c0,2.84,3.4,5.24,7.43,5.24s7.43-2.4,7.43-5.24h6.08c0,6.24-6.06,11.32-13.51,11.32Z" style="fill: #002c44;"/>
            <path d="m409.4,586.9c-11.48,0-20.82-7.67-20.82-17.1h6.08c0,6.08,6.61,11.02,14.74,11.02s14.74-4.94,14.74-11.02h6.08c0,9.43-9.34,17.1-20.82,17.1Z" style="fill: #002c44;"/>
            <path d="m546.88,620.38c-.37-.27-1.36.22-1.83.55-1.56,1.12-2.56,2.96-1.45,4.78.52.9,1.54,1.73,2.66,2.4.7.38.96,1.28.54,1.96-.36.59-1.08.83-1.7.59-1.59-.6-3.12-1.38-4.34-2.7-3.77-3.92-1.32-10.46,3.1-12.76,6.95-3.7,8.54,5.18,3.02,5.17h0Z" style="fill: #002c44;"/>
            <path d="m271.5,612.34c2.59-.04,4.41,1.13,6,2.76,4.61,4.99,2.8,11.5-3.64,13.58-1.59.59-2.66-1.63-1.23-2.51,1.89-1.1,3.79-2.88,3.02-5.02-.39-1.19-1.68-2.45-2.94-2.79-.37-.11-.65-.04-.64.02-4.01.26-4.57-5.55-.58-6.05h0Z" style="fill: #002c44;"/>
            <path d="m499.07,676.26c-3.96-16.75-28.94-25.19-55.78-18.83-10.76,2.55-15.98,4.2-23.21,6.46-1.71.53-22.55.33-22.55.33,0,0,2.75,5.79-.4,3.45-7.03-5.22-12.5-7.82-22.72-10.24-26.84-6.35-51.82,2.08-55.78,18.83-3.96,16.75,5.64,31.89,32.49,38.25,20.16,4.77,44.31,3.23,56.76-4.94,9.77,9.58,29.22,13.39,49.78,8.53,26.84-6.35,45.39-25.08,41.43-41.84Z" style="fill: #8fa4ff;"/>
            <path d="m323.43,671.25c-.27,7.03-2.73,21.15,23.61,31.31,26.13,10.08,55.19,1.86,55.19,1.86l-6.37,11.14s-22.82,8.76-54.92-4.25c-32.1-13-17.51-40.06-17.51-40.06Z" style="fill: #6f7ac8;"/>
            <path d="m435.67,684.51s37.01.27,38.74,24.81l-7.69,3.45s-18.04-23.08-33.7-27.2c-15.65-4.11,2.65-1.06,2.65-1.06Z" style="fill: #6f7ac8;"/>
            <path d="m502.47,674.07c-2.88-9.76-12.14-16.27-21.3-19.24-16.91-5.49-37.9-3.16-53.59,5.02-.44.24-.88.49-1.32.74h-34.54c-.87-.55-1.75-1.07-2.65-1.56-4-2.17-8.29-3.74-12.61-4.89-18.8-4.98-45.4-4.35-58.17,12.72-4.4,6.19-5.61,14.28-4.47,21.72,2.32,14.97,16.43,24.51,29.88,28.55,16.17,5.06,38.95,6.71,56.43.71,1.2.03,2.39-.4,3.31-1.25,1.37-.57,2.7-1.2,3.98-1.88,22.41,17.37,62.05,9.72,82.17-7.77,9.23-7.76,16.78-20.42,12.88-32.86Zm-13.87,22.5c-8.32,9.12-19.91,14.55-31.87,17.41-11.95,2.66-24.79,3.04-36.21-1.45-3.66-1.46-7.02-3.45-9.68-5.98-.14-.13-.29-.25-.44-.36.84-1.7,1.57-3.44,2.15-5.23,1-3.21,1.64-6.64,1.7-10.06,3.7-.74,7.37-1.55,11.04-2.42,13.51-3.27,26.95-6.85,40.3-10.75,2.15-.68,1.42-3.85-.8-3.54-13.73,2.2-27.41,4.73-41.02,7.57-3.44.73-6.86,1.51-10.27,2.36-.16-.63-.34-1.25-.55-1.86-.54-1.38-1.78-2.46-3.35-2.72l-49.33-8.3c-3.28-.46-4.23,4.19-1.08,5.08l45.43,11.7c.58,4.38-.45,9.13-2.32,13.17-.89,2.07-2.17,4.08-3.44,5.96-.67.9-1.37,1.79-2.06,2.68-15.6,4.87-36.23,3.12-50.37-1.28-15.1-4.64-28.03-15.01-23.37-32.23,2.06-7.01,8.85-11.6,15.69-14.06,19.22-6.68,41.36-1.57,59.04,7.62.64.33,1.44.23,1.99-.29.69-.66.71-1.76.05-2.45-.37-.39-.75-.76-1.14-1.13h19.9c-.71.61-1.4,1.22-2.07,1.87-.66.63-.81,1.65-.31,2.45.57.92,1.78,1.2,2.7.62,3.64-2.27,7.31-4.3,11.15-5.91,15.28-6.18,32.94-8.68,48.74-3.32,17.46,6.1,22.44,20.77,9.78,34.87Z" style="fill: #002c44;"/>
            <path d="m422.4,725.94c-9.99-2.62-15.79-6.27-18.61-12.37-.6-1.29,2.59-5.87,4.97-13.23,2.43-7.49,1.29-12.24,4.28-12.74,5.15-.86,10.39-.76,19,1.49,17.2,4.51,36.22,14.11,32.14,29.05-3.48,12.74-24.59,12.3-41.79,7.79Z" style="fill: #fff;"/>
            <path d="m420.2,719.26c-6.7-1.76-10.6-4.21-12.49-8.3-.4-.87,1.74-3.94,3.34-8.88,1.63-5.03.87-8.21,2.87-8.55,3.45-.58,6.98-.51,12.76,1,11.54,3.02,24.31,9.47,21.57,19.5-2.34,8.55-16.5,8.26-28.05,5.23Z" style="fill: #dcf8ff;"/>
            <path d="m442.85,733.88c-6.59,0-14.09-1.04-21.73-3.04-11.75-3.08-18.51-7.75-21.92-15.15-1.29-2.79-.12-5.35,1.51-8.89.98-2.14,2.2-4.8,3.25-8.03.84-2.58,1.19-4.78,1.5-6.73.54-3.4,1.36-8.54,6.77-9.44,6.54-1.09,12.66-.63,21.12,1.59,9.75,2.55,27.11,8.56,33.78,20.1,2.72,4.7,3.4,9.96,1.96,15.19-1.51,5.52-6.21,12.44-20.05,14.06-1.94.23-4.01.34-6.18.34Zm-19.16-12.84c15.98,4.19,33.34,4.08,35.62-4.23.73-2.68.43-5.04-.96-7.45-3.47-6.01-13.78-11.75-27.57-15.37-7.02-1.84-11.33-2.07-15.1-1.64-.07.42-.15.88-.21,1.29-.33,2.08-.79,4.93-1.87,8.26-1.23,3.79-2.64,6.88-3.68,9.13-.26.58-.56,1.23-.8,1.77,1.72,2.79,5.21,5.79,14.57,8.24Zm-14.96-7.25h0Z" style="fill: #002c44;"/>
            <g>
              <path d="m418.35,710.98s-1.95-5.64,3.61-10.56" style="fill: #fff;"/>
              <path d="m418.35,712.48c-.62,0-1.2-.39-1.41-1.01-.09-.27-2.21-6.65,4.03-12.17.62-.55,1.56-.49,2.11.13s.49,1.56-.13,2.11c-4.75,4.21-3.2,8.9-3.19,8.95.27.78-.14,1.63-.92,1.9-.16.06-.33.08-.49.08Z" style="fill: #002c44;"/>
            </g>
            <g>
              <path d="m424.65,712.49s-1.89-5.45,3.49-10.21" style="fill: #fff;"/>
              <path d="m424.64,713.93c-.6,0-1.15-.37-1.36-.97-.09-.26-2.13-6.43,3.9-11.77.6-.53,1.51-.47,2.04.12.53.6.47,1.51-.12,2.04-4.54,4.02-3.14,8.48-3.08,8.66.25.75-.16,1.57-.91,1.83-.16.05-.31.08-.47.08Z" style="fill: #002c44;"/>
            </g>
            <g>
              <path d="m431.02,714.28s-1.89-5.45,3.49-10.21" style="fill: #fff;"/>
              <path d="m431.01,715.72c-.6,0-1.15-.37-1.36-.97-.09-.26-2.13-6.43,3.9-11.77.6-.53,1.51-.47,2.04.12.53.6.47,1.51-.12,2.04-4.54,4.02-3.14,8.48-3.08,8.66.25.75-.16,1.57-.91,1.83-.16.05-.31.08-.47.08Z" style="fill: #002c44;"/>
            </g>
            <path d="m450.79,727.08c-.65,0-1.24-.44-1.4-1.1-3.63-14.53,5.17-21.75,5.54-22.04.63-.5,1.53-.4,2.03.23.5.62.4,1.53-.23,2.03-.33.27-7.71,6.43-4.54,19.08.19.78-.28,1.56-1.05,1.75-.12.03-.24.04-.35.04Z" style="fill: #002c44;"/>
            <path d="m453.18,707.81c-.23,0-.46-.08-.65-.23-13.49-11.16-33.22-12.71-37.78-12.5-.58.03-1.03-.41-1.06-.97-.02-.56.41-1.03.97-1.06.23,0,23.04-.37,39.16,12.97.43.36.49,1,.14,1.43-.2.24-.49.37-.78.37Z" style="fill: #002c44;"/>
            <path d="m445.25,722.73c-7.18,0-23.35-1.14-36.22-10.39-.45-.33-.56-.96-.23-1.41.33-.46.96-.56,1.41-.23,14.22,10.22,34.02,10.4,38.55,9.9.55-.07,1.06.34,1.12.89.06.56-.34,1.06-.89,1.12-.05,0-1.43.12-3.73.12Z" style="fill: #002c44;"/>
          </g>
          <g style="mix-blend-mode: multiply; opacity: .5;">
            <path d="m445.16,574.28c-6.41,11.78-19.78,22.88-35.23,22.88s-29.31-11.47-35.57-23.53c2.99-1.76,6.1-3.28,9.3-4.57,4.79-1.92,9.8-3.3,14.94-4.1,3.49-.55,7.04-.83,10.61-.83,3.85,0,7.66.32,11.41.96,8.7,1.47,17.03,4.59,24.54,9.2Z" style="fill: #767e8f;"/>
          </g>
          <g>
            <path d="m412.12,566.72l102.39-.06c28.56-1.8,51.16-25.51,51.16-54.52s-24.46-54.64-54.64-54.64c-2.1,0-4.18.13-6.22.36,0-.12,0-.24,0-.36,0-14.06-11.4-25.46-25.46-25.46-1.39,0-2.76.12-4.09.33-1.16-33.89-28.98-61.01-63.15-61.01-34.17,0-61.99,27.12-63.15,61.01-1.33-.21-2.7-.33-4.09-.33-14.06,0-25.46,11.4-25.46,25.46,0,.12,0,.24,0,.36-2.04-.23-4.12-.36-6.22-.36-30.18,0-54.64,24.46-54.64,54.64,0,29.01,22.61,52.72,51.16,54.52l102.39.06h0Z" style="fill: #fff;"/>
            <path d="m310.32,549.77c-19.58-1.48-34.85-17.91-34.85-37.63,0-20.81,16.93-37.75,37.75-37.75,1.37,0,2.83.09,4.32.25l15.29,1.73c2.03.23,3.79-1.37,3.76-3.41-.1-5.66-.26-15.57-.26-15.63.09-4.65,3.9-8.41,8.57-8.41.45,0,.92.04,1.39.11l15.14,2.45c2.01.32,3.85-1.19,3.92-3.22l.52-15.33c.41-12.03,5.41-23.27,14.07-31.66,8.68-8.41,20.12-13.04,32.2-13.04s23.53,4.63,32.2,13.04c8.66,8.39,13.66,19.63,14.07,31.66l.52,15.33c.07,2.03,1.91,3.54,3.92,3.22l15.14-2.45c.47-.08.94-.11,1.39-.11,4.67,0,8.48,3.75,8.57,8.4,0,.11,0,.23,0,.34l-.17,15.3c-.02,2.03,1.74,3.62,3.76,3.39l15.21-1.72c1.51-.17,2.92-.25,4.32-.25,20.81,0,37.75,16.93,37.75,37.75,0,19.71-15.27,36.15-34.85,37.63l-101.81.06-101.81-.06Z" style="fill: #dcf8ff;"/>
            <circle cx="380.98" cy="486.12" r="23.35" style="fill: #fff;"/>
            <circle cx="443.16" cy="486.12" r="23.35" style="fill: #fff;"/>
            <path d="m380.98,512.84c-14.74,0-26.73-11.99-26.73-26.73s11.99-26.73,26.73-26.73,26.73,11.99,26.73,26.73-11.99,26.73-26.73,26.73Zm0-46.7c-11.01,0-19.97,8.96-19.97,19.97s8.96,19.97,19.97,19.97,19.97-8.96,19.97-19.97-8.96-19.97-19.97-19.97Z" style="fill: #002c44;"/>
            <path d="m371.41,492.88c-1.71-6.52,1.53-16.46,9.56-16.72,8.03.26,11.27,10.2,9.56,16.72-.32,1.44-2.4,1.48-2.79.08-1.1-3.71-2.23-7.3-4.95-9.67-.85-.62-1.68-.98-2.65-.57-3.41,1.71-4.77,6.4-5.93,10.16-.34,1.48-2.49,1.47-2.81,0h0Z" style="fill: #002c44;"/>
            <path d="m357.73,483.27h-5.77c-2.05,0-3.72-1.66-3.72-3.72s1.66-3.72,3.72-3.72h5.77c2.05,0,3.72,1.66,3.72,3.72s-1.66,3.72-3.72,3.72Z" style="fill: #002c44;"/>
            <path d="m443.16,512.84c-14.74,0-26.73-11.99-26.73-26.73s11.99-26.73,26.73-26.73,26.73,11.99,26.73,26.73-11.99,26.73-26.73,26.73Zm0-46.7c-11.01,0-19.97,8.96-19.97,19.97s8.96,19.97,19.97,19.97,19.97-8.96,19.97-19.97-8.96-19.97-19.97-19.97Z" style="fill: #002c44;"/>
            <path d="m449.91,492.88c-1.1-3.7-2.23-7.24-4.93-9.59-.85-.62-1.68-.98-2.64-.57-3.43,1.72-4.8,6.46-5.95,10.24-.22.77-1.02,1.21-1.78.99-.52-.15-.89-.57-1.01-1.06-.7-3.06-.59-6.39.64-9.6,3.56-9.43,14.29-9.43,17.85,0,1.23,3.21,1.34,6.54.64,9.6-.18.78-.95,1.26-1.73,1.08-.56-.13-.96-.56-1.08-1.08h0Z" style="fill: #002c44;"/>
            <path d="m472.18,483.27h-5.77c-2.05,0-3.72-1.66-3.72-3.72s1.66-3.72,3.72-3.72h5.77c2.05,0,3.72,1.66,3.72,3.72s-1.66,3.72-3.72,3.72Z" style="fill: #002c44;"/>
            <path d="m418.95,490.15c-.55,0-1.1-.13-1.61-.41-5.05-2.75-10.89.03-10.95.06-1.67.81-3.69.13-4.52-1.54-.82-1.67-.15-3.68,1.51-4.51.36-.18,9-4.4,17.19.05,1.64.89,2.24,2.94,1.35,4.58-.61,1.13-1.77,1.76-2.97,1.76Z" style="fill: #002c44;"/>
            <path d="m369.02,451.3c2.48-2.48,5.35-4.44,8.63-5.84,3.26-1.4,6.95-2.07,10.66-1.84,1.87.11,3.3,1.72,3.18,3.59-.11,2-2,3.48-3.97,3.12-2.56-.45-5.28-.33-7.93.46-2.67.78-5.3,2.15-7.5,3.92-2.28,1.75-5.05-1.36-3.06-3.42h0Z" style="fill: #002c44;"/>
            <path d="m452.02,454.68c-4.25-3.4-10.06-5.36-15.38-4.34-4.42.65-5.56-5.75-1.18-6.67,3.81-.36,7.69.36,11.05,1.79,3.27,1.4,6.15,3.35,8.63,5.84,2.02,2.11-.86,5.21-3.12,3.38h0Z" style="fill: #002c44;"/>
            <path d="m426.13,516.92c-.75,2.45-2.14,5.76-4.57,8.36-2.2,2.34-5.24,4.11-9.45,4.11s-7.03-1.64-9.2-3.85c-2.59-2.64-4.04-6.09-4.82-8.62-.51-1.68.75-3.36,2.5-3.36h23.03c1.75,0,3.01,1.68,2.5,3.36Z" style="fill: #002c44;"/>
            <path d="m421.56,525.28c-2.2,2.34-5.24,4.11-9.45,4.11s-7.03-1.64-9.2-3.85c1.58-3.61,5.19-6.14,9.38-6.14s7.62,2.41,9.26,5.88Z" style="fill: #ff7b78;"/>
            <path d="m412.12,531.76c-7.59,0-13.52-5.15-16.27-14.14-.47-1.52-.19-3.12.75-4.4.95-1.28,2.41-2.02,4.01-2.02h23.03c1.6,0,3.06.74,4.01,2.02.94,1.28,1.22,2.88.75,4.4-2.75,8.99-8.69,14.14-16.27,14.14Zm-11.51-15.83s-.13,0-.2.1c-.07.09-.04.17-.04.2,2.73,8.93,7.9,10.8,11.75,10.8s9.02-1.87,11.75-10.8c0-.03.03-.11-.04-.2-.08-.1-.17-.1-.2-.1h-23.03Z" style="fill: #002c44;"/>
            <path d="m511.03,452.44c-.52,0-1.04,0-1.56.02-2.38-14.25-14.66-25.19-29.51-25.48-1.74-15.75-8.85-30.32-20.36-41.46-12.8-12.4-29.66-19.23-47.48-19.23s-34.69,6.83-47.48,19.23c-11.5,11.15-18.62,25.71-20.36,41.46-14.85.29-27.13,11.23-29.51,25.48-.52-.01-1.05-.02-1.56-.02-32.92,0-59.71,26.78-59.71,59.71s24.56,57.6,55.91,59.58h.16s102.55.07,102.55.07h0l102.39-.06h.31c31.35-1.98,55.91-28.15,55.91-59.59s-26.78-59.71-59.71-59.71Zm3.31,109.16l-102.23.06-102.23-.06c-25.95-1.71-46.26-23.4-46.26-49.45,0-27.33,22.24-49.57,49.57-49.57,1.82,0,3.72.11,5.65.33l3.48.4c2.52.43,5.31,1.12,7.99,2.2,1.69.68,3.2-1.31,2.05-2.71-1.97-2.41-4.61-4.96-7.85-6.61.69-10.63,9.55-19.06,20.34-19.06.12,0,.25.01.37.02,3.24.31,7.63,1.03,11.75,2.7,1.69.68,3.2-1.31,2.05-2.71-1.36-1.66-3.03-3.38-5-4.84.58-15,6.84-29.01,17.64-39.48,10.9-10.56,25.25-16.37,40.43-16.37s29.54,5.81,40.43,16.37c10.83,10.49,17.09,24.54,17.65,39.58-1.91,1.43-3.54,3.12-4.87,4.74-1.15,1.41.36,3.4,2.05,2.71,4.17-1.68,8.61-2.4,11.85-2.71.04,0,.09,0,.13,0,11.08,0,20.11,8.88,20.38,19.91-2.43,1.58-4.46,3.62-6.05,5.57-1.15,1.41.36,3.39,2.05,2.71,2.74-1.11,5.6-1.8,8.16-2.23l1.49-.17c1.93-.22,3.83-.33,5.65-.33,27.33,0,49.57,22.24,49.57,49.57s-20.31,47.74-46.26,49.45Z" style="fill: #002c44;"/>
          </g>
        </g>
      </g>
    </g>
  </g>
</svg>